<svg width="939" height="760" viewBox="0 0 939 760" fill="none" xmlns="http://www.w3.org/2000/svg">
<line x1="74.5" y1="2.18557e-08" x2="74.5" y2="760" stroke="white"/>
<line x1="514.5" y1="2.18557e-08" x2="514.5" y2="760" stroke="white"/>
<line x1="939" y1="74.5" x2="-5.40066e-08" y2="74.4999" stroke="white"/>
<line x1="162.5" y1="2.18557e-08" x2="162.5" y2="760" stroke="white"/>
<line x1="602.5" y1="2.18557e-08" x2="602.5" y2="760" stroke="white"/>
<line x1="939" y1="162.5" x2="-5.40066e-08" y2="162.5" stroke="white"/>
<line x1="250.5" y1="2.18557e-08" x2="250.5" y2="760" stroke="white"/>
<line x1="690.5" y1="2.18557e-08" x2="690.5" y2="760" stroke="white"/>
<line x1="939" y1="250.5" x2="-5.40066e-08" y2="250.5" stroke="white"/>
<line x1="939" y1="514.5" x2="-5.40066e-08" y2="514.5" stroke="white"/>
<line x1="338.5" y1="2.18557e-08" x2="338.5" y2="760" stroke="white"/>
<line x1="778.5" y1="2.18557e-08" x2="778.5" y2="760" stroke="white"/>
<line x1="939" y1="338.5" x2="-5.40066e-08" y2="338.5" stroke="white"/>
<line x1="939" y1="602.5" x2="-5.40066e-08" y2="602.5" stroke="white"/>
<line x1="426.5" y1="2.18557e-08" x2="426.5" y2="760" stroke="white"/>
<line x1="866.5" y1="2.18557e-08" x2="866.5" y2="760" stroke="white"/>
<line x1="939" y1="426.5" x2="-5.40066e-08" y2="426.5" stroke="white"/>
<line x1="939" y1="690.5" x2="-5.40066e-08" y2="690.5" stroke="white"/>
</svg>
