<svg width="1815" height="1491" viewBox="0 0 1815 1491" fill="none" xmlns="http://www.w3.org/2000/svg">
<line x1="74.5" y1="2.18557e-08" x2="74.4999" y2="1491" stroke="white"/>
<line x1="954.5" y1="2.18557e-08" x2="954.5" y2="1491" stroke="white"/>
<line x1="514.5" y1="2.18557e-08" x2="514.5" y2="1491" stroke="white"/>
<line x1="1394.5" y1="2.18557e-08" x2="1394.5" y2="1491" stroke="white"/>
<line x1="1815" y1="74.5" x2="-1.0439e-07" y2="74.4999" stroke="white"/>
<line x1="1815" y1="778.5" x2="-1.0439e-07" y2="778.5" stroke="white"/>
<line x1="162.5" y1="2.18557e-08" x2="162.5" y2="1491" stroke="white"/>
<line x1="1042.5" y1="2.18557e-08" x2="1042.5" y2="1491" stroke="white"/>
<line x1="602.5" y1="2.18557e-08" x2="602.5" y2="1491" stroke="white"/>
<line x1="1482.5" y1="2.18557e-08" x2="1482.5" y2="1491" stroke="white"/>
<line x1="1815" y1="162.5" x2="-1.0439e-07" y2="162.5" stroke="white"/>
<line x1="1815" y1="866.5" x2="-1.0439e-07" y2="866.5" stroke="white"/>
<line x1="250.5" y1="2.18557e-08" x2="250.5" y2="1491" stroke="white"/>
<line x1="1130.5" y1="2.18557e-08" x2="1130.5" y2="1491" stroke="white"/>
<line x1="690.5" y1="2.18557e-08" x2="690.5" y2="1491" stroke="white"/>
<line x1="1570.5" y1="2.18557e-08" x2="1570.5" y2="1491" stroke="white"/>
<line x1="1815" y1="250.5" x2="-1.0439e-07" y2="250.5" stroke="white"/>
<line x1="1815" y1="954.5" x2="-1.0439e-07" y2="954.5" stroke="white"/>
<line x1="1815" y1="514.5" x2="-1.0439e-07" y2="514.5" stroke="white"/>
<line x1="1815" y1="1218.5" x2="-1.0439e-07" y2="1218.5" stroke="white"/>
<line x1="338.5" y1="2.18557e-08" x2="338.5" y2="1491" stroke="white"/>
<line x1="1218.5" y1="2.18557e-08" x2="1218.5" y2="1491" stroke="white"/>
<line x1="778.5" y1="2.18557e-08" x2="778.5" y2="1491" stroke="white"/>
<line x1="1658.5" y1="2.18557e-08" x2="1658.5" y2="1491" stroke="white"/>
<line x1="1815" y1="338.5" x2="-1.0439e-07" y2="338.5" stroke="white"/>
<line x1="1815" y1="1042.5" x2="-1.0439e-07" y2="1042.5" stroke="white"/>
<line x1="1815" y1="602.5" x2="-1.0439e-07" y2="602.5" stroke="white"/>
<line x1="1815" y1="1306.5" x2="-1.0439e-07" y2="1306.5" stroke="white"/>
<line x1="426.5" y1="2.18557e-08" x2="426.5" y2="1491" stroke="white"/>
<line x1="1306.5" y1="2.18557e-08" x2="1306.5" y2="1491" stroke="white"/>
<line x1="866.5" y1="2.18557e-08" x2="866.5" y2="1491" stroke="white"/>
<line x1="1746.5" y1="2.18557e-08" x2="1746.5" y2="1491" stroke="white"/>
<line x1="1815" y1="426.5" x2="-1.0439e-07" y2="426.5" stroke="white"/>
<line x1="1815" y1="1130.5" x2="-1.0439e-07" y2="1130.5" stroke="white"/>
<line x1="1815" y1="690.5" x2="-1.0439e-07" y2="690.5" stroke="white"/>
<line x1="1815" y1="1394.5" x2="-1.0439e-07" y2="1394.5" stroke="white"/>
</svg>
