<svg width="939" height="760" viewBox="0 0 939 760" fill="none" xmlns="http://www.w3.org/2000/svg">
<line x1="64.5" y1="2.18557e-08" x2="64.5" y2="760" stroke="white"/>
<line x1="504.5" y1="2.18557e-08" x2="504.5" y2="760" stroke="white"/>
<line x1="939" y1="74.5" x2="-5.40066e-08" y2="74.4999" stroke="white"/>
<line x1="152.5" y1="2.18557e-08" x2="152.5" y2="760" stroke="white"/>
<line x1="592.5" y1="2.18557e-08" x2="592.5" y2="760" stroke="white"/>
<line x1="939" y1="162.5" x2="-5.40066e-08" y2="162.5" stroke="white"/>
<line x1="240.5" y1="2.18557e-08" x2="240.5" y2="760" stroke="white"/>
<line x1="680.5" y1="2.18557e-08" x2="680.5" y2="760" stroke="white"/>
<line x1="939" y1="250.5" x2="-5.40066e-08" y2="250.5" stroke="white"/>
<line x1="939" y1="514.5" x2="-5.40066e-08" y2="514.5" stroke="white"/>
<line x1="328.5" y1="2.18557e-08" x2="328.5" y2="760" stroke="white"/>
<line x1="768.5" y1="2.18557e-08" x2="768.5" y2="760" stroke="white"/>
<line x1="939" y1="338.5" x2="-5.40066e-08" y2="338.5" stroke="white"/>
<line x1="939" y1="602.5" x2="-5.40066e-08" y2="602.5" stroke="white"/>
<line x1="416.5" y1="2.18557e-08" x2="416.5" y2="760" stroke="white"/>
<line x1="856.5" y1="2.18557e-08" x2="856.5" y2="760" stroke="white"/>
<line x1="939" y1="426.5" x2="-5.40066e-08" y2="426.5" stroke="white"/>
<line x1="939" y1="690.5" x2="-5.40066e-08" y2="690.5" stroke="white"/>
</svg>
