<svg width="487" height="768" viewBox="0 0 487 768" fill="none" xmlns="http://www.w3.org/2000/svg">
<g filter="url(#filter0_d_31_29)">
<line x1="68.5" y1="2.18557e-08" x2="68.5" y2="760" stroke="white"/>
<line x1="483" y1="74.5" x2="4" y2="74.4999" stroke="white"/>
<line x1="156.5" y1="2.18557e-08" x2="156.5" y2="760" stroke="white"/>
<line x1="483" y1="162.5" x2="4" y2="162.5" stroke="white"/>
<line x1="244.5" y1="2.18557e-08" x2="244.5" y2="760" stroke="white"/>
<line x1="483" y1="250.5" x2="4" y2="250.5" stroke="white"/>
<line x1="483" y1="514.5" x2="4" y2="514.5" stroke="white"/>
<line x1="332.5" y1="2.18557e-08" x2="332.5" y2="760" stroke="white"/>
<line x1="483" y1="338.5" x2="4" y2="338.5" stroke="white"/>
<line x1="483" y1="602.5" x2="4" y2="602.5" stroke="white"/>
<line x1="420.5" y1="2.18557e-08" x2="420.5" y2="760" stroke="white"/>
<line x1="483" y1="426.5" x2="4" y2="426.5" stroke="white"/>
<line x1="483" y1="690.5" x2="4" y2="690.5" stroke="white"/>
</g>
<defs>
<filter id="filter0_d_31_29" x="0" y="0" width="487" height="768" filterUnits="userSpaceOnUse" color-interpolation-filters="sRGB">
<feFlood flood-opacity="0" result="BackgroundImageFix"/>
<feColorMatrix in="SourceAlpha" type="matrix" values="0 0 0 0 0 0 0 0 0 0 0 0 0 0 0 0 0 0 127 0" result="hardAlpha"/>
<feOffset dy="4"/>
<feGaussianBlur stdDeviation="2"/>
<feComposite in2="hardAlpha" operator="out"/>
<feColorMatrix type="matrix" values="0 0 0 0 0 0 0 0 0 0 0 0 0 0 0 0 0 0 0.25 0"/>
<feBlend mode="normal" in2="BackgroundImageFix" result="effect1_dropShadow_31_29"/>
<feBlend mode="normal" in="SourceGraphic" in2="effect1_dropShadow_31_29" result="shape"/>
</filter>
</defs>
</svg>
