<svg width="841" height="119" viewBox="0 0 841 119" fill="none" xmlns="http://www.w3.org/2000/svg">
<mask id="path-1-outside-1_18_12" maskUnits="userSpaceOnUse" x="0" y="11" width="358" height="58" fill="black">
<rect fill="white" y="11" width="358" height="58"/>
<path d="M69.92 53.72L72.24 45.96H22.48C21.36 45.96 20.4267 45.7467 19.68 45.32C18.9333 44.8933 18.3467 44.3333 17.92 43.64C17.4933 42.9467 17.2267 42.1733 17.12 41.32C17.0667 40.4667 17.1733 39.5867 17.44 38.68L22.32 22.92C22.64 22.0667 23.0933 21.2133 23.68 20.36C24.2667 19.4533 24.9867 18.6533 25.84 17.96C26.6933 17.2667 27.6267 16.7067 28.64 16.28C29.6533 15.8533 30.72 15.64 31.84 15.64H99.36L95.92 26.92H38.88L36.48 34.68H86.24C87.36 34.68 88.2933 34.8933 89.04 35.32C89.84 35.7467 90.4267 36.3067 90.8 37C91.2267 37.6933 91.4667 38.4933 91.52 39.4C91.6267 40.2533 91.52 41.1067 91.2 41.96L86.4 57.72C86.1333 58.6267 85.68 59.5067 85.04 60.36C84.4533 61.2133 83.7333 61.9867 82.88 62.68C82.0267 63.3733 81.0933 63.9333 80.08 64.36C79.0667 64.7867 78 65 76.88 65H6.16L9.68 53.72H69.92ZM137.084 65H119.324L131.084 26.92H102.604L106.044 15.64H180.284L176.844 26.92H148.844L137.084 65ZM263.942 22.92L250.982 65H233.222L239.062 45.96H201.302L204.822 34.68H242.582L244.982 26.92H201.302L189.542 65H171.782L184.742 22.92C185.062 22.0667 185.515 21.2133 186.102 20.36C186.689 19.4533 187.409 18.6533 188.262 17.96C189.115 17.2667 190.049 16.7067 191.062 16.28C192.075 15.8533 193.142 15.64 194.262 15.64H258.902C260.022 15.64 260.955 15.8533 261.702 16.28C262.502 16.7067 263.115 17.2667 263.542 17.96C263.969 18.6533 264.209 19.4533 264.262 20.36C264.369 21.2133 264.262 22.0667 263.942 22.92ZM275.479 65H257.719L272.919 15.64H289.959L323.879 49.56L334.359 15.64H352.119L336.919 65H319.879L285.879 31.16L275.479 65Z"/>
</mask>
<path d="M69.92 53.72V57.72H72.8991L73.7524 54.8658L69.92 53.72ZM72.24 45.96L76.0724 47.1058L77.6108 41.96H72.24V45.96ZM17.92 43.64L21.3266 41.5436L21.3266 41.5436L17.92 43.64ZM17.12 41.32L13.1278 41.5695L13.1355 41.6932L13.1509 41.8161L17.12 41.32ZM17.44 38.68L13.619 37.4968L13.6106 37.524L13.6025 37.5513L17.44 38.68ZM22.32 22.92L18.5747 21.5155L18.5336 21.6251L18.499 21.7368L22.32 22.92ZM23.68 20.36L26.9762 22.6261L27.0079 22.58L27.0383 22.533L23.68 20.36ZM25.84 17.96L28.3624 21.0645L28.3624 21.0645L25.84 17.96ZM28.64 16.28L30.1922 19.9665L30.1922 19.9665L28.64 16.28ZM99.36 15.64L103.186 16.8068L104.762 11.64H99.36V15.64ZM95.92 26.92V30.92H98.882L99.746 28.0868L95.92 26.92ZM38.88 26.92V22.92H35.9302L35.0586 25.7381L38.88 26.92ZM36.48 34.68L32.6586 33.4981L31.0559 38.68H36.48V34.68ZM89.04 35.32L87.0555 38.793L87.1061 38.8219L87.1577 38.8494L89.04 35.32ZM90.8 37L87.2781 38.8964L87.3329 38.9981L87.3934 39.0964L90.8 37ZM91.52 39.4L87.5269 39.6349L87.5346 39.7659L87.5509 39.8962L91.52 39.4ZM91.2 41.96L87.4547 40.5555L87.4103 40.6738L87.3735 40.7946L91.2 41.96ZM86.4 57.72L82.5735 56.5546L82.568 56.5729L82.5625 56.5913L86.4 57.72ZM85.04 60.36L81.84 57.96L81.7905 58.026L81.7438 58.0939L85.04 60.36ZM82.88 62.68L80.3576 59.5755L80.3576 59.5755L82.88 62.68ZM6.16 65L2.3416 63.8084L0.721538 69H6.16V65ZM9.68 53.72V49.72H6.73799L5.8616 52.5284L9.68 53.72ZM73.7524 54.8658L76.0724 47.1058L68.4076 44.8142L66.0876 52.5742L73.7524 54.8658ZM72.24 41.96H22.48V49.96H72.24V41.96ZM22.48 41.96C21.8511 41.96 21.6508 41.8392 21.6646 41.847L17.6954 48.793C19.2025 49.6542 20.8689 49.96 22.48 49.96V41.96ZM21.6646 41.847C21.4658 41.7335 21.3822 41.6338 21.3266 41.5436L14.5134 45.7364C15.3112 47.0328 16.4008 48.0532 17.6954 48.793L21.6646 41.847ZM21.3266 41.5436C21.2165 41.3646 21.1289 41.1423 21.0891 40.8239L13.1509 41.8161C13.3244 43.2043 13.7702 44.5287 14.5134 45.7364L21.3266 41.5436ZM21.1122 41.0705C21.0908 40.7285 21.1284 40.3154 21.2775 39.8087L13.6025 37.5513C13.2182 38.858 13.0425 40.2049 13.1278 41.5695L21.1122 41.0705ZM21.261 39.8632L26.141 24.1032L18.499 21.7368L13.619 37.4968L21.261 39.8632ZM26.0653 24.3245C26.2569 23.8136 26.5492 23.2472 26.9762 22.6261L20.3838 18.0939C19.6375 19.1794 19.0231 20.3198 18.5747 21.5155L26.0653 24.3245ZM27.0383 22.533C27.3928 21.9852 27.8288 21.498 28.3624 21.0645L23.3176 14.8555C22.1445 15.8087 21.1406 16.9215 20.3217 18.187L27.0383 22.533ZM28.3624 21.0645C28.9215 20.6101 29.5282 20.2461 30.1922 19.9665L27.0878 12.5935C25.7251 13.1672 24.4651 13.9232 23.3176 14.8555L28.3624 21.0645ZM30.1922 19.9665C30.7049 19.7507 31.2429 19.64 31.84 19.64V11.64C30.1971 11.64 28.6018 11.956 27.0878 12.5935L30.1922 19.9665ZM31.84 19.64H99.36V11.64H31.84V19.64ZM95.534 14.4732L92.094 25.7532L99.746 28.0868L103.186 16.8068L95.534 14.4732ZM95.92 22.92H38.88V30.92H95.92V22.92ZM35.0586 25.7381L32.6586 33.4981L40.3014 35.8619L42.7014 28.1019L35.0586 25.7381ZM36.48 38.68H86.24V30.68H36.48V38.68ZM86.24 38.68C86.8689 38.68 87.0692 38.8008 87.0555 38.793L91.0246 31.847C89.5175 30.9858 87.8511 30.68 86.24 30.68V38.68ZM87.1577 38.8494C87.2742 38.9115 87.3166 38.9519 87.3181 38.9534C87.3193 38.9545 87.3136 38.9492 87.3045 38.9373C87.2953 38.9253 87.286 38.9111 87.2781 38.8964L94.3219 35.1036C93.5207 33.6157 92.3096 32.5305 90.9224 31.7906L87.1577 38.8494ZM87.3934 39.0964C87.4353 39.1645 87.5078 39.3101 87.5269 39.6349L95.5131 39.1651C95.4255 37.6766 95.018 36.2221 94.2066 34.9036L87.3934 39.0964ZM87.5509 39.8962C87.5725 40.0688 87.5614 40.271 87.4547 40.5555L94.9453 43.3645C95.4786 41.9423 95.6809 40.4379 95.4891 38.9038L87.5509 39.8962ZM87.3735 40.7946L82.5735 56.5546L90.2265 58.8854L95.0265 43.1254L87.3735 40.7946ZM82.5625 56.5913C82.4469 56.9845 82.2299 57.4402 81.84 57.96L88.24 62.76C89.1301 61.5731 89.8198 60.2688 90.2375 58.8487L82.5625 56.5913ZM81.7438 58.0939C81.3867 58.6134 80.9326 59.1084 80.3576 59.5755L85.4024 65.7845C86.5341 64.865 87.52 63.8133 88.3362 62.6261L81.7438 58.0939ZM80.3576 59.5755C79.7985 60.0299 79.1918 60.3939 78.5278 60.6735L81.6322 68.0465C82.9949 67.4728 84.2549 66.7168 85.4024 65.7845L80.3576 59.5755ZM78.5278 60.6735C78.0151 60.8893 77.4771 61 76.88 61V69C78.5229 69 80.1182 68.684 81.6322 68.0465L78.5278 60.6735ZM76.88 61H6.16V69H76.88V61ZM9.9784 66.1916L13.4984 54.9116L5.8616 52.5284L2.3416 63.8084L9.9784 66.1916ZM9.68 57.72H69.92V49.72H9.68V57.72ZM137.084 65V69H140.035L140.906 66.1803L137.084 65ZM119.324 65L115.502 63.8197L113.903 69H119.324V65ZM131.084 26.92L134.906 28.1003L136.506 22.92H131.084V26.92ZM102.604 26.92L98.7783 25.7532L97.2026 30.92H102.604V26.92ZM106.044 15.64V11.64H103.082L102.218 14.4732L106.044 15.64ZM180.284 15.64L184.11 16.8068L185.686 11.64H180.284V15.64ZM176.844 26.92V30.92H179.806L180.67 28.0868L176.844 26.92ZM148.844 26.92V22.92H145.893L145.022 25.7397L148.844 26.92ZM137.084 61H119.324V69H137.084V61ZM123.146 66.1803L134.906 28.1003L127.262 25.7397L115.502 63.8197L123.146 66.1803ZM131.084 22.92H102.604V30.92H131.084V22.92ZM106.43 28.0868L109.87 16.8068L102.218 14.4732L98.7783 25.7532L106.43 28.0868ZM106.044 19.64H180.284V11.64H106.044V19.64ZM176.458 14.4732L173.018 25.7532L180.67 28.0868L184.11 16.8068L176.458 14.4732ZM176.844 22.92H148.844V30.92H176.844V22.92ZM145.022 25.7397L133.262 63.8197L140.906 66.1803L152.666 28.1003L145.022 25.7397ZM263.942 22.92L260.197 21.5155L260.154 21.6279L260.119 21.7426L263.942 22.92ZM250.982 65V69H253.935L254.805 66.1774L250.982 65ZM233.222 65L229.398 63.827L227.811 69H233.222V65ZM239.062 45.96L242.886 47.133L244.473 41.96H239.062V45.96ZM201.302 45.96L197.483 44.7684L195.863 49.96H201.302V45.96ZM204.822 34.68V30.68H201.88L201.003 33.4884L204.822 34.68ZM242.582 34.68V38.68H245.532L246.403 35.8619L242.582 34.68ZM244.982 26.92L248.803 28.1019L250.406 22.92H244.982V26.92ZM201.302 26.92V22.92H198.351L197.48 25.7397L201.302 26.92ZM189.542 65V69H192.493L193.364 66.1803L189.542 65ZM171.782 65L167.959 63.8226L166.365 69H171.782V65ZM184.742 22.92L180.997 21.5155L180.954 21.6279L180.919 21.7426L184.742 22.92ZM186.102 20.36L189.398 22.6261L189.43 22.58L189.46 22.533L186.102 20.36ZM188.262 17.96L190.784 21.0645L190.784 21.0645L188.262 17.96ZM191.062 16.28L192.614 19.9665L192.614 19.9665L191.062 16.28ZM261.702 16.28L259.717 19.753L259.768 19.7819L259.82 19.8094L261.702 16.28ZM263.542 17.96L260.135 20.0564L260.135 20.0564L263.542 17.96ZM264.262 20.36L260.269 20.5949L260.276 20.7259L260.293 20.8561L264.262 20.36ZM260.119 21.7426L247.159 63.8226L254.805 66.1774L267.765 24.0974L260.119 21.7426ZM250.982 61H233.222V69H250.982V61ZM237.046 66.173L242.886 47.133L235.238 44.787L229.398 63.827L237.046 66.173ZM239.062 41.96H201.302V49.96H239.062V41.96ZM205.12 47.1516L208.64 35.8716L201.003 33.4884L197.483 44.7684L205.12 47.1516ZM204.822 38.68H242.582V30.68H204.822V38.68ZM246.403 35.8619L248.803 28.1019L241.16 25.7381L238.76 33.4981L246.403 35.8619ZM244.982 22.92H201.302V30.92H244.982V22.92ZM197.48 25.7397L185.72 63.8197L193.364 66.1803L205.124 28.1003L197.48 25.7397ZM189.542 61H171.782V69H189.542V61ZM175.605 66.1774L188.565 24.0974L180.919 21.7426L167.959 63.8226L175.605 66.1774ZM188.487 24.3245C188.679 23.8136 188.971 23.2472 189.398 22.6261L182.806 18.0939C182.059 19.1794 181.445 20.3198 180.997 21.5155L188.487 24.3245ZM189.46 22.533C189.815 21.9852 190.251 21.498 190.784 21.0645L185.74 14.8555C184.566 15.8087 183.562 16.9215 182.744 18.187L189.46 22.533ZM190.784 21.0645C191.343 20.6101 191.95 20.2461 192.614 19.9665L189.51 12.5935C188.147 13.1672 186.887 13.9232 185.74 14.8555L190.784 21.0645ZM192.614 19.9665C193.127 19.7507 193.665 19.64 194.262 19.64V11.64C192.619 11.64 191.024 11.956 189.51 12.5935L192.614 19.9665ZM194.262 19.64H258.902V11.64H194.262V19.64ZM258.902 19.64C259.531 19.64 259.731 19.7608 259.717 19.753L263.686 12.807C262.179 11.9458 260.513 11.64 258.902 11.64V19.64ZM259.82 19.8094C260.066 19.941 260.122 20.0342 260.135 20.0564L266.949 15.8636C266.109 14.4991 264.937 13.4723 263.584 12.7506L259.82 19.8094ZM260.135 20.0564C260.177 20.1245 260.25 20.2701 260.269 20.5949L268.255 20.1251C268.167 18.6366 267.76 17.1821 266.949 15.8636L260.135 20.0564ZM260.293 20.8561C260.314 21.0288 260.303 21.231 260.197 21.5155L267.687 24.3245C268.22 22.9024 268.423 21.3979 268.231 19.8639L260.293 20.8561ZM275.479 65V69H278.435L279.303 66.1751L275.479 65ZM257.719 65L253.897 63.8228L252.302 69H257.719V65ZM272.919 15.64V11.64H269.966L269.097 14.4628L272.919 15.64ZM289.959 15.64L292.788 12.8116L291.616 11.64H289.959V15.64ZM323.879 49.56L321.051 52.3884L325.743 57.08L327.701 50.7408L323.879 49.56ZM334.359 15.64V11.64H331.409L330.538 14.4592L334.359 15.64ZM352.119 15.64L355.942 16.8172L357.537 11.64H352.119V15.64ZM336.919 65V69H339.873L340.742 66.1772L336.919 65ZM319.879 65L317.058 67.8351L318.228 69H319.879V65ZM285.879 31.16L288.701 28.3249L284.003 23.649L282.056 29.9849L285.879 31.16ZM275.479 61H257.719V69H275.479V61ZM261.542 66.1772L276.742 16.8172L269.097 14.4628L253.897 63.8228L261.542 66.1772ZM272.919 19.64H289.959V11.64H272.919V19.64ZM287.131 18.4684L321.051 52.3884L326.708 46.7316L292.788 12.8116L287.131 18.4684ZM327.701 50.7408L338.181 16.8208L330.538 14.4592L320.058 48.3792L327.701 50.7408ZM334.359 19.64H352.119V11.64H334.359V19.64ZM348.297 14.4628L333.097 63.8228L340.742 66.1772L355.942 16.8172L348.297 14.4628ZM336.919 61H319.879V69H336.919V61ZM322.701 62.1649L288.701 28.3249L283.058 33.9951L317.058 67.8351L322.701 62.1649ZM282.056 29.9849L271.656 63.8249L279.303 66.1751L289.703 32.3351L282.056 29.9849Z" fill="white" mask="url(#path-1-outside-1_18_12)"/>
<mask id="path-3-outside-2_18_12" maskUnits="userSpaceOnUse" x="325" y="49" width="512" height="58" fill="black">
<rect fill="white" x="325" y="49" width="512" height="58"/>
<path d="M365.52 91.72H409.52L406 103H331.36L334.88 91.64L387.04 64.92H343.12L346.56 53.64H421.2L417.68 65L365.52 91.72ZM480.368 103H412.688L416.208 91.72H441.168L449.408 64.92H424.448L427.888 53.64H495.568L492.128 64.92H467.168L458.928 91.72H483.888L480.368 103ZM504.823 103H487.063L502.263 53.64H519.303L553.223 87.56L563.703 53.64H581.463L566.263 103H549.223L515.223 69.16L504.823 103ZM580.281 103C579.161 103 578.227 102.787 577.481 102.36C576.734 101.933 576.147 101.373 575.721 100.68C575.294 99.9867 575.027 99.2133 574.921 98.36C574.867 97.5067 574.974 96.6267 575.241 95.72L585.961 60.92C586.281 60.0667 586.734 59.2133 587.321 58.36C587.907 57.4533 588.627 56.6533 589.481 55.96C590.334 55.2667 591.267 54.7067 592.281 54.28C593.294 53.8533 594.361 53.64 595.481 53.64H667.401L663.961 64.92H602.521L594.281 91.72H637.961L640.281 83.96H602.841L606.361 72.68H661.561L654.441 95.72C654.174 96.6267 653.721 97.5067 653.081 98.36C652.494 99.2133 651.774 99.9867 650.921 100.68C650.067 101.373 649.134 101.933 648.121 102.36C647.107 102.787 646.041 103 644.921 103H580.281ZM681.418 53.64H741.578C742.698 53.64 743.631 53.88 744.378 54.36C745.125 54.7867 745.685 55.3467 746.058 56.04C746.485 56.7333 746.725 57.5067 746.778 58.36C746.885 59.2133 746.831 60.0667 746.618 60.92L741.738 76.68C741.471 77.5867 741.018 78.4667 740.378 79.32C739.791 80.1733 739.071 80.9467 738.218 81.64C737.365 82.3333 736.431 82.8933 735.418 83.32C734.405 83.7467 733.338 83.96 732.218 83.96H688.378L691.898 72.68H725.258L727.658 64.92H688.458L680.218 91.72H737.178L733.658 103H666.218C665.098 103 664.165 102.787 663.418 102.36C662.671 101.933 662.085 101.373 661.658 100.68C661.231 99.9867 660.965 99.2133 660.858 98.36C660.805 97.5067 660.911 96.6267 661.178 95.72L671.898 60.92C672.218 60.0667 672.671 59.2133 673.258 58.36C673.845 57.4533 674.565 56.6533 675.418 55.96C676.271 55.2667 677.205 54.7067 678.218 54.28C679.231 53.8533 680.298 53.64 681.418 53.64ZM740.344 103L755.544 53.64H827.464C828.584 53.64 829.518 53.8533 830.264 54.28C831.064 54.7067 831.678 55.2667 832.104 55.96C832.531 56.6533 832.771 57.4533 832.824 58.36C832.931 59.2133 832.824 60.0667 832.504 60.92L827.624 76.68C827.358 77.5867 826.904 78.4667 826.264 79.32C825.678 80.1733 824.958 80.9467 824.104 81.64C823.251 82.3333 822.318 82.8933 821.304 83.32C820.291 83.7467 819.224 83.96 818.104 83.96H796.984C798.104 84.8667 799.331 85.7733 800.664 86.68C802.051 87.5867 803.438 88.4133 804.824 89.16C806.211 89.9067 807.571 90.52 808.904 91C810.238 91.48 811.464 91.72 812.584 91.72H826.264L822.744 103H803.864C803.171 103 802.291 102.867 801.224 102.6C800.211 102.28 799.358 101.907 798.664 101.48C793.971 98.28 789.544 95.1867 785.384 92.2C781.278 89.16 777.038 85.96 772.664 82.6C772.398 82.0133 772.184 81.5067 772.024 81.08C771.864 80.6533 771.731 80.1733 771.624 79.64C771.464 78.8933 771.518 78.1467 771.784 77.4C771.944 76.8667 772.238 76.3333 772.664 75.8C773.091 75.2133 773.571 74.7067 774.104 74.28C774.638 73.8 775.198 73.4267 775.784 73.16C776.371 72.84 776.904 72.68 777.384 72.68H811.144L813.544 64.92H769.864L758.104 103H740.344Z"/>
</mask>
<path d="M365.52 91.72L363.696 88.1599L365.52 95.72V91.72ZM409.52 91.72L413.338 92.9116L414.958 87.72H409.52V91.72ZM406 103V107H408.942L409.818 104.192L406 103ZM331.36 103L327.539 101.816L325.933 107H331.36V103ZM334.88 91.64L333.056 88.0799L331.558 88.8477L331.059 90.4561L334.88 91.64ZM387.04 64.92L388.864 68.4801L387.04 60.92V64.92ZM343.12 64.92L339.294 63.7532L337.718 68.92H343.12V64.92ZM346.56 53.64V49.64H343.598L342.734 52.4732L346.56 53.64ZM421.2 53.64L425.021 54.8239L426.627 49.64H421.2V53.64ZM417.68 65L419.504 68.5601L421.002 67.7923L421.501 66.1839L417.68 65ZM365.52 95.72H409.52V87.72H365.52V95.72ZM405.702 90.5284L402.182 101.808L409.818 104.192L413.338 92.9116L405.702 90.5284ZM406 99H331.36V107H406V99ZM335.181 104.184L338.701 92.8239L331.059 90.4561L327.539 101.816L335.181 104.184ZM336.704 95.2001L388.864 68.4801L385.216 61.3599L333.056 88.0799L336.704 95.2001ZM387.04 60.92H343.12V68.92H387.04V60.92ZM346.946 66.0868L350.386 54.8068L342.734 52.4732L339.294 63.7532L346.946 66.0868ZM346.56 57.64H421.2V49.64H346.56V57.64ZM417.379 52.4561L413.859 63.8161L421.501 66.1839L425.021 54.8239L417.379 52.4561ZM415.856 61.4399L363.696 88.1599L367.344 95.2801L419.504 68.5601L415.856 61.4399ZM480.368 103V107H483.31L484.187 104.192L480.368 103ZM412.688 103L408.87 101.808L407.25 107H412.688V103ZM416.208 91.72V87.72H413.266L412.39 90.5284L416.208 91.72ZM441.168 91.72V95.72H444.123L444.991 92.8955L441.168 91.72ZM449.408 64.92L453.231 66.0955L454.823 60.92H449.408V64.92ZM424.448 64.92L420.622 63.7532L419.046 68.92H424.448V64.92ZM427.888 53.64V49.64H424.926L424.062 52.4732L427.888 53.64ZM495.568 53.64L499.394 54.8068L500.97 49.64H495.568V53.64ZM492.128 64.92V68.92H495.09L495.954 66.0868L492.128 64.92ZM467.168 64.92V60.92H464.213L463.345 63.7445L467.168 64.92ZM458.928 91.72L455.105 90.5445L453.513 95.72H458.928V91.72ZM483.888 91.72L487.707 92.9116L489.327 87.72H483.888V91.72ZM480.368 99H412.688V107H480.368V99ZM416.507 104.192L420.027 92.9116L412.39 90.5284L408.87 101.808L416.507 104.192ZM416.208 95.72H441.168V87.72H416.208V95.72ZM444.991 92.8955L453.231 66.0955L445.585 63.7445L437.345 90.5445L444.991 92.8955ZM449.408 60.92H424.448V68.92H449.408V60.92ZM428.274 66.0868L431.714 54.8068L424.062 52.4732L420.622 63.7532L428.274 66.0868ZM427.888 57.64H495.568V49.64H427.888V57.64ZM491.742 52.4732L488.302 63.7532L495.954 66.0868L499.394 54.8068L491.742 52.4732ZM492.128 60.92H467.168V68.92H492.128V60.92ZM463.345 63.7445L455.105 90.5445L462.751 92.8955L470.991 66.0955L463.345 63.7445ZM458.928 95.72H483.888V87.72H458.928V95.72ZM480.07 90.5284L476.55 101.808L484.187 104.192L487.707 92.9116L480.07 90.5284ZM504.823 103V107H507.778L508.647 104.175L504.823 103ZM487.063 103L483.24 101.823L481.646 107H487.063V103ZM502.263 53.64V49.64H499.31L498.44 52.4628L502.263 53.64ZM519.303 53.64L522.132 50.8116L520.96 49.64H519.303V53.64ZM553.223 87.56L550.395 90.3884L555.086 95.08L557.045 88.7408L553.223 87.56ZM563.703 53.64V49.64H560.752L559.881 52.4592L563.703 53.64ZM581.463 53.64L585.286 54.8172L586.88 49.64H581.463V53.64ZM566.263 103V107H569.217L570.086 104.177L566.263 103ZM549.223 103L546.401 105.835L547.572 107H549.223V103ZM515.223 69.16L518.045 66.3249L513.347 61.649L511.4 67.9849L515.223 69.16ZM504.823 99H487.063V107H504.823V99ZM490.886 104.177L506.086 54.8172L498.44 52.4628L483.24 101.823L490.886 104.177ZM502.263 57.64H519.303V49.64H502.263V57.64ZM516.475 56.4684L550.395 90.3884L556.052 84.7316L522.132 50.8116L516.475 56.4684ZM557.045 88.7408L567.525 54.8208L559.881 52.4592L549.401 86.3792L557.045 88.7408ZM563.703 57.64H581.463V49.64H563.703V57.64ZM577.64 52.4628L562.44 101.823L570.086 104.177L585.286 54.8172L577.64 52.4628ZM566.263 99H549.223V107H566.263V99ZM552.045 100.165L518.045 66.3249L512.401 71.9951L546.401 105.835L552.045 100.165ZM511.4 67.9849L501 101.825L508.647 104.175L519.047 70.3351L511.4 67.9849ZM575.721 100.68L572.314 102.776L572.314 102.776L575.721 100.68ZM574.921 98.36L570.928 98.6095L570.936 98.7332L570.952 98.8561L574.921 98.36ZM575.241 95.72L571.418 94.5424L571.41 94.5668L571.403 94.5913L575.241 95.72ZM585.961 60.92L582.215 59.5155L582.173 59.6278L582.138 59.7424L585.961 60.92ZM587.321 58.36L590.617 60.6261L590.649 60.58L590.679 60.533L587.321 58.36ZM589.481 55.96L592.003 59.0645L592.003 59.0645L589.481 55.96ZM592.281 54.28L593.833 57.9665L593.833 57.9665L592.281 54.28ZM667.401 53.64L671.227 54.8068L672.802 49.64H667.401V53.64ZM663.961 64.92V68.92H666.923L667.787 66.0868L663.961 64.92ZM602.521 64.92V60.92H599.566L598.697 63.7445L602.521 64.92ZM594.281 91.72L590.457 90.5445L588.866 95.72H594.281V91.72ZM637.961 91.72V95.72H640.94L641.793 92.8658L637.961 91.72ZM640.281 83.96L644.113 85.1058L645.651 79.96H640.281V83.96ZM602.841 83.96L599.022 82.7684L597.402 87.96H602.841V83.96ZM606.361 72.68V68.68H603.419L602.542 71.4884L606.361 72.68ZM661.561 72.68L665.382 73.861L666.983 68.68H661.561V72.68ZM654.441 95.72L650.619 94.539L650.611 94.5651L650.603 94.5913L654.441 95.72ZM653.081 98.36L649.881 95.96L649.831 96.026L649.784 96.0939L653.081 98.36ZM650.921 100.68L653.443 103.784L653.443 103.784L650.921 100.68ZM648.121 102.36L649.673 106.047L649.673 106.047L648.121 102.36ZM580.281 99C579.652 99 579.451 98.8792 579.465 98.887L575.496 105.833C577.003 106.694 578.669 107 580.281 107V99ZM579.465 98.887C579.266 98.7735 579.183 98.6738 579.127 98.5836L572.314 102.776C573.112 104.073 574.201 105.093 575.496 105.833L579.465 98.887ZM579.127 98.5836C579.017 98.4046 578.93 98.1823 578.89 97.8639L570.952 98.8561C571.125 100.244 571.571 101.569 572.314 102.776L579.127 98.5836ZM578.913 98.1105C578.891 97.7685 578.929 97.3554 579.078 96.8487L571.403 94.5913C571.019 95.898 570.843 97.2449 570.928 98.6095L578.913 98.1105ZM579.063 96.8976L589.783 62.0976L582.138 59.7424L571.418 94.5424L579.063 96.8976ZM589.706 62.3245C589.898 61.8136 590.19 61.2472 590.617 60.6261L584.024 56.0939C583.278 57.1794 582.664 58.3198 582.215 59.5155L589.706 62.3245ZM590.679 60.533C591.033 59.9852 591.469 59.498 592.003 59.0645L586.958 52.8555C585.785 53.8087 584.781 54.9215 583.962 56.187L590.679 60.533ZM592.003 59.0645C592.562 58.6101 593.169 58.2461 593.833 57.9665L590.728 50.5935C589.366 51.1672 588.106 51.9232 586.958 52.8555L592.003 59.0645ZM593.833 57.9665C594.346 57.7507 594.884 57.64 595.481 57.64V49.64C593.838 49.64 592.242 49.956 590.728 50.5935L593.833 57.9665ZM595.481 57.64H667.401V49.64H595.481V57.64ZM663.575 52.4732L660.135 63.7532L667.787 66.0868L671.227 54.8068L663.575 52.4732ZM663.961 60.92H602.521V68.92H663.961V60.92ZM598.697 63.7445L590.457 90.5445L598.104 92.8955L606.344 66.0955L598.697 63.7445ZM594.281 95.72H637.961V87.72H594.281V95.72ZM641.793 92.8658L644.113 85.1058L636.448 82.8142L634.128 90.5742L641.793 92.8658ZM640.281 79.96H602.841V87.96H640.281V79.96ZM606.659 85.1516L610.179 73.8716L602.542 71.4884L599.022 82.7684L606.659 85.1516ZM606.361 76.68H661.561V68.68H606.361V76.68ZM657.739 71.499L650.619 94.539L658.262 96.901L665.382 73.861L657.739 71.499ZM650.603 94.5913C650.488 94.9845 650.27 95.4402 649.881 95.96L656.281 100.76C657.171 99.5731 657.86 98.2688 658.278 96.8487L650.603 94.5913ZM649.784 96.0939C649.427 96.6134 648.973 97.1084 648.398 97.5755L653.443 103.784C654.575 102.865 655.561 101.813 656.377 100.626L649.784 96.0939ZM648.398 97.5755C647.839 98.0299 647.232 98.3939 646.568 98.6735L649.673 106.047C651.036 105.473 652.295 104.717 653.443 103.784L648.398 97.5755ZM646.568 98.6735C646.056 98.8893 645.518 99 644.921 99V107C646.564 107 648.159 106.684 649.673 106.047L646.568 98.6735ZM644.921 99H580.281V107H644.921V99ZM744.378 54.36L742.215 57.7247L742.303 57.7812L742.394 57.833L744.378 54.36ZM746.058 56.04L742.536 57.9364L742.591 58.0381L742.651 58.1364L746.058 56.04ZM746.778 58.36L742.786 58.6095L742.794 58.7332L742.809 58.8561L746.778 58.36ZM746.618 60.92L750.439 62.1032L750.472 61.9975L750.499 61.8902L746.618 60.92ZM741.738 76.68L737.917 75.4968L737.909 75.524L737.901 75.5513L741.738 76.68ZM740.378 79.32L737.178 76.92L737.129 76.986L737.082 77.0539L740.378 79.32ZM738.218 81.64L735.696 78.5355L735.696 78.5356L738.218 81.64ZM735.418 83.32L733.866 79.6335L733.866 79.6335L735.418 83.32ZM688.378 83.96L684.56 82.7684L682.94 87.96H688.378V83.96ZM691.898 72.68V68.68H688.956L688.08 71.4884L691.898 72.68ZM725.258 72.68V76.68H728.208L729.08 73.8619L725.258 72.68ZM727.658 64.92L731.48 66.1019L733.082 60.92H727.658V64.92ZM688.458 64.92V60.92H685.503L684.635 63.7445L688.458 64.92ZM680.218 91.72L676.395 90.5445L674.803 95.72H680.218V91.72ZM737.178 91.72L740.997 92.9116L742.617 87.72H737.178V91.72ZM733.658 103V107H736.6L737.477 104.192L733.658 103ZM661.658 100.68L658.251 102.776L658.251 102.776L661.658 100.68ZM660.858 98.36L656.866 98.6095L656.874 98.7332L656.889 98.8561L660.858 98.36ZM661.178 95.72L657.355 94.5424L657.348 94.5668L657.341 94.5913L661.178 95.72ZM671.898 60.92L668.153 59.5155L668.111 59.6278L668.075 59.7424L671.898 60.92ZM673.258 58.36L676.554 60.6261L676.586 60.58L676.616 60.533L673.258 58.36ZM675.418 55.96L677.94 59.0645L677.94 59.0645L675.418 55.96ZM678.218 54.28L679.77 57.9665L679.77 57.9665L678.218 54.28ZM681.418 57.64H741.578V49.64H681.418V57.64ZM741.578 57.64C742.131 57.64 742.263 57.7557 742.215 57.7247L746.541 50.9953C745 50.0043 743.265 49.64 741.578 49.64V57.64ZM742.394 57.833C742.485 57.8849 742.522 57.9204 742.53 57.9284C742.536 57.9347 742.535 57.9345 742.536 57.9364L749.58 54.1436C748.819 52.7311 747.697 51.6496 746.363 50.887L742.394 57.833ZM742.651 58.1364C742.717 58.2431 742.771 58.3765 742.786 58.6095L750.77 58.1105C750.678 56.6368 750.252 55.2236 749.465 53.9436L742.651 58.1364ZM742.809 58.8561C742.853 59.2081 742.834 59.5645 742.738 59.9498L750.499 61.8902C750.829 60.5689 750.917 59.2185 750.747 57.8639L742.809 58.8561ZM742.797 59.7368L737.917 75.4968L745.559 77.8632L750.439 62.1032L742.797 59.7368ZM737.901 75.5513C737.785 75.9445 737.568 76.4002 737.178 76.92L743.578 81.72C744.468 80.5331 745.158 79.2288 745.576 77.8087L737.901 75.5513ZM737.082 77.0539C736.725 77.5734 736.271 78.0684 735.696 78.5355L740.74 84.7445C741.872 83.825 742.858 82.7733 743.674 81.5861L737.082 77.0539ZM735.696 78.5356C735.137 78.9899 734.53 79.3539 733.866 79.6335L736.97 87.0065C738.333 86.4328 739.593 85.6768 740.741 84.7444L735.696 78.5356ZM733.866 79.6335C733.353 79.8493 732.815 79.96 732.218 79.96V87.96C733.861 87.96 735.456 87.644 736.97 87.0065L733.866 79.6335ZM732.218 79.96H688.378V87.96H732.218V79.96ZM692.197 85.1516L695.717 73.8716L688.08 71.4884L684.56 82.7684L692.197 85.1516ZM691.898 76.68H725.258V68.68H691.898V76.68ZM729.08 73.8619L731.48 66.1019L723.837 63.7381L721.437 71.4981L729.08 73.8619ZM727.658 60.92H688.458V68.92H727.658V60.92ZM684.635 63.7445L676.395 90.5445L684.041 92.8955L692.281 66.0955L684.635 63.7445ZM680.218 95.72H737.178V87.72H680.218V95.72ZM733.36 90.5284L729.84 101.808L737.477 104.192L740.997 92.9116L733.36 90.5284ZM733.658 99H666.218V107H733.658V99ZM666.218 99C665.589 99 665.389 98.8792 665.403 98.887L661.434 105.833C662.941 106.694 664.607 107 666.218 107V99ZM665.403 98.887C665.204 98.7735 665.12 98.6738 665.065 98.5836L658.251 102.776C659.049 104.073 660.139 105.093 661.434 105.833L665.403 98.887ZM665.065 98.5836C664.955 98.4046 664.867 98.1823 664.827 97.8639L656.889 98.8561C657.063 100.244 657.508 101.569 658.251 102.776L665.065 98.5836ZM664.85 98.1105C664.829 97.7685 664.867 97.3554 665.016 96.8487L657.341 94.5913C656.956 95.898 656.781 97.2449 656.866 98.6095L664.85 98.1105ZM665.001 96.8976L675.721 62.0976L668.075 59.7424L657.355 94.5424L665.001 96.8976ZM675.643 62.3245C675.835 61.8136 676.127 61.2472 676.554 60.6261L669.962 56.0939C669.216 57.1794 668.601 58.3198 668.153 59.5155L675.643 62.3245ZM676.616 60.533C676.971 59.9852 677.407 59.498 677.94 59.0645L672.896 52.8555C671.723 53.8087 670.719 54.9215 669.9 56.187L676.616 60.533ZM677.94 59.0645C678.5 58.6101 679.106 58.2461 679.77 57.9665L676.666 50.5935C675.303 51.1672 674.043 51.9232 672.896 52.8555L677.94 59.0645ZM679.77 57.9665C680.283 57.7507 680.821 57.64 681.418 57.64V49.64C679.775 49.64 678.18 49.956 676.666 50.5935L679.77 57.9665ZM740.344 103L736.522 101.823L734.927 107H740.344V103ZM755.544 53.64V49.64H752.591L751.722 52.4628L755.544 53.64ZM830.264 54.28L828.28 57.753L828.331 57.7819L828.382 57.8094L830.264 54.28ZM832.104 55.96L828.698 58.0564L828.698 58.0564L832.104 55.96ZM832.824 58.36L828.831 58.5949L828.839 58.7259L828.855 58.8561L832.824 58.36ZM832.504 60.92L828.759 59.5155L828.718 59.6251L828.683 59.7368L832.504 60.92ZM827.624 76.68L823.803 75.4968L823.795 75.524L823.787 75.5513L827.624 76.68ZM826.264 79.32L823.064 76.92L823.015 76.986L822.968 77.0539L826.264 79.32ZM824.104 81.64L826.627 84.7445L826.627 84.7444L824.104 81.64ZM821.304 83.32L819.752 79.6335L819.752 79.6335L821.304 83.32ZM796.984 83.96V79.96H785.686L794.468 87.069L796.984 83.96ZM800.664 86.68L798.415 89.9877L798.445 90.0081L798.475 90.0279L800.664 86.68ZM804.824 89.16L806.721 85.6381L806.721 85.6381L804.824 89.16ZM808.904 91L810.259 87.2365L810.259 87.2364L808.904 91ZM826.264 91.72L830.083 92.9116L831.703 87.72H826.264V91.72ZM822.744 103V107H825.686L826.563 104.192L822.744 103ZM801.224 102.6L800.02 106.414L800.136 106.451L800.254 106.481L801.224 102.6ZM798.664 101.48L796.411 104.785L796.488 104.838L796.568 104.887L798.664 101.48ZM785.384 92.2L783.004 95.415L783.028 95.4323L783.052 95.4493L785.384 92.2ZM772.664 82.6L769.023 84.2552L769.436 85.1638L770.227 85.7719L772.664 82.6ZM772.024 81.08L775.77 79.6755L775.77 79.6755L772.024 81.08ZM771.624 79.64L775.547 78.8555L775.541 78.8287L775.536 78.8019L771.624 79.64ZM771.784 77.4L775.551 78.7453L775.586 78.6482L775.616 78.5494L771.784 77.4ZM772.664 75.8L775.788 78.2988L775.845 78.227L775.899 78.1527L772.664 75.8ZM774.104 74.28L776.603 77.4035L776.694 77.3309L776.78 77.2532L774.104 74.28ZM775.784 73.16L777.44 76.8015L777.572 76.7413L777.7 76.6716L775.784 73.16ZM811.144 72.68V76.68H814.094L814.966 73.8619L811.144 72.68ZM813.544 64.92L817.366 66.1019L818.968 60.92H813.544V64.92ZM769.864 64.92V60.92H766.913L766.042 63.7397L769.864 64.92ZM758.104 103V107H761.055L761.926 104.18L758.104 103ZM744.167 104.177L759.367 54.8172L751.722 52.4628L736.522 101.823L744.167 104.177ZM755.544 57.64H827.464V49.64H755.544V57.64ZM827.464 57.64C828.093 57.64 828.294 57.7608 828.28 57.753L832.249 50.807C830.742 49.9458 829.076 49.64 827.464 49.64V57.64ZM828.382 57.8094C828.629 57.941 828.684 58.0342 828.698 58.0564L835.511 53.8636C834.671 52.4991 833.5 51.4723 832.147 50.7506L828.382 57.8094ZM828.698 58.0564C828.74 58.1245 828.812 58.2701 828.831 58.5949L836.817 58.1251C836.73 56.6366 836.322 55.1821 835.511 53.8636L828.698 58.0564ZM828.855 58.8561C828.877 59.0288 828.866 59.231 828.759 59.5155L836.25 62.3245C836.783 60.9024 836.985 59.3979 836.793 57.8639L828.855 58.8561ZM828.683 59.7368L823.803 75.4968L831.445 77.8632L836.325 62.1032L828.683 59.7368ZM823.787 75.5513C823.671 75.9445 823.454 76.4002 823.064 76.92L829.464 81.72C830.355 80.5331 831.044 79.2288 831.462 77.8087L823.787 75.5513ZM822.968 77.0539C822.611 77.5734 822.157 78.0684 821.582 78.5355L826.627 84.7444C827.758 83.825 828.744 82.7733 829.561 81.5861L822.968 77.0539ZM821.582 78.5355C821.023 78.9899 820.416 79.3539 819.752 79.6335L822.857 87.0065C824.219 86.4328 825.479 85.6768 826.627 84.7445L821.582 78.5355ZM819.752 79.6335C819.239 79.8493 818.701 79.96 818.104 79.96V87.96C819.747 87.96 821.343 87.644 822.857 87.0065L819.752 79.6335ZM818.104 79.96H796.984V87.96H818.104V79.96ZM794.468 87.069C795.683 88.0532 797.001 89.0258 798.415 89.9877L802.914 83.3723C801.662 82.5209 800.525 81.6801 799.501 80.851L794.468 87.069ZM798.475 90.0279C799.952 90.9935 801.436 91.8787 802.928 92.6819L806.721 85.6381C805.439 84.948 804.15 84.1799 802.853 83.3321L798.475 90.0279ZM802.928 92.6819C804.47 93.5122 806.011 94.2096 807.55 94.7635L810.259 87.2364C809.131 86.8304 807.952 86.3011 806.721 85.6381L802.928 92.6819ZM807.549 94.7635C809.207 95.3603 810.898 95.72 812.584 95.72V87.72C812.03 87.72 811.268 87.5997 810.259 87.2365L807.549 94.7635ZM812.584 95.72H826.264V87.72H812.584V95.72ZM822.446 90.5284L818.926 101.808L826.563 104.192L830.083 92.9116L822.446 90.5284ZM822.744 99H803.864V107H822.744V99ZM803.864 99C803.631 99 803.106 98.9472 802.195 98.7194L800.254 106.481C801.476 106.786 802.711 107 803.864 107V99ZM802.429 98.7857C801.639 98.5363 801.105 98.2851 800.761 98.0734L796.568 104.887C797.611 105.528 798.783 106.024 800.02 106.414L802.429 98.7857ZM800.918 98.1751C796.248 94.9914 791.848 91.9166 787.717 88.9507L783.052 95.4493C787.24 98.4567 791.694 101.569 796.411 104.785L800.918 98.1751ZM787.764 88.985C783.678 85.9603 779.457 82.7747 775.101 79.4281L770.227 85.7719C774.618 89.1453 778.877 92.3597 783.004 95.415L787.764 88.985ZM776.306 80.9448C776.063 80.4098 775.888 79.9909 775.77 79.6755L768.279 82.4845C768.481 83.0225 768.733 83.6169 769.023 84.2552L776.306 80.9448ZM775.77 79.6755C775.698 79.4846 775.619 79.2169 775.547 78.8555L767.702 80.4245C767.843 81.1298 768.031 81.8221 768.279 82.4845L775.77 79.6755ZM775.536 78.8019C775.534 78.7939 775.534 78.792 775.534 78.795C775.534 78.7981 775.534 78.8019 775.534 78.805C775.534 78.808 775.534 78.8061 775.536 78.7981C775.537 78.7899 775.542 78.7726 775.551 78.7453L768.017 76.0546C767.511 77.4734 767.391 78.9757 767.713 80.4781L775.536 78.8019ZM775.616 78.5494C775.599 78.6046 775.611 78.5198 775.788 78.2988L769.541 73.3012C768.864 74.1468 768.29 75.1288 767.953 76.2506L775.616 78.5494ZM775.899 78.1527C776.129 77.8368 776.365 77.5938 776.603 77.4035L771.606 71.1565C770.777 71.8195 770.053 72.5899 769.429 73.4473L775.899 78.1527ZM776.78 77.2532C777.044 77.0161 777.265 76.8809 777.44 76.8015L774.129 69.5185C773.131 69.9725 772.232 70.5839 771.429 71.3068L776.78 77.2532ZM777.7 76.6716C777.796 76.619 777.819 76.6176 777.774 76.6313C777.726 76.6457 777.59 76.68 777.384 76.68V68.68C776.024 68.68 774.825 69.127 773.869 69.6484L777.7 76.6716ZM777.384 76.68H811.144V68.68H777.384V76.68ZM814.966 73.8619L817.366 66.1019L809.723 63.7381L807.323 71.4981L814.966 73.8619ZM813.544 60.92H769.864V68.92H813.544V60.92ZM766.042 63.7397L754.282 101.82L761.926 104.18L773.686 66.1003L766.042 63.7397ZM758.104 99H740.344V107H758.104V99Z" fill="white" mask="url(#path-3-outside-2_18_12)"/>
</svg>
