<svg width="358" height="58" viewBox="0 0 358 58" fill="none" xmlns="http://www.w3.org/2000/svg">
<g clip-path="url(#clip0_38_92)">
<mask id="path-1-outside-1_38_92" maskUnits="userSpaceOnUse" x="0" y="0" width="358" height="58" fill="black">
<rect fill="white" width="358" height="58"/>
<path d="M69.92 42.72L72.24 34.96H22.48C21.36 34.96 20.4267 34.7467 19.68 34.32C18.9333 33.8933 18.3467 33.3333 17.92 32.64C17.4933 31.9467 17.2267 31.1733 17.12 30.32C17.0667 29.4667 17.1733 28.5867 17.44 27.68L22.32 11.92C22.64 11.0667 23.0933 10.2133 23.68 9.36C24.2667 8.45333 24.9867 7.65333 25.84 6.96C26.6933 6.26667 27.6267 5.70667 28.64 5.28C29.6533 4.85333 30.72 4.64 31.84 4.64H99.36L95.92 15.92H38.88L36.48 23.68H86.24C87.36 23.68 88.2933 23.8933 89.04 24.32C89.84 24.7467 90.4267 25.3067 90.8 26C91.2267 26.6933 91.4667 27.4933 91.52 28.4C91.6267 29.2533 91.52 30.1067 91.2 30.96L86.4 46.72C86.1333 47.6267 85.68 48.5067 85.04 49.36C84.4533 50.2133 83.7333 50.9867 82.88 51.68C82.0267 52.3733 81.0933 52.9333 80.08 53.36C79.0667 53.7867 78 54 76.88 54H6.16L9.68 42.72H69.92ZM137.084 54H119.324L131.084 15.92H102.604L106.044 4.64H180.284L176.844 15.92H148.844L137.084 54ZM263.942 11.92L250.982 54H233.222L239.062 34.96H201.302L204.822 23.68H242.582L244.982 15.92H201.302L189.542 54H171.782L184.742 11.92C185.062 11.0667 185.515 10.2133 186.102 9.36C186.689 8.45333 187.409 7.65333 188.262 6.96C189.115 6.26667 190.049 5.70667 191.062 5.28C192.075 4.85333 193.142 4.64 194.262 4.64H258.902C260.022 4.64 260.955 4.85333 261.702 5.28C262.502 5.70667 263.115 6.26667 263.542 6.96C263.969 7.65333 264.209 8.45333 264.262 9.36C264.369 10.2133 264.262 11.0667 263.942 11.92ZM275.479 54H257.719L272.919 4.64H289.959L323.879 38.56L334.359 4.64H352.119L336.919 54H319.879L285.879 20.16L275.479 54Z"/>
</mask>
<path d="M69.92 42.72V46.72H72.8991L73.7524 43.8658L69.92 42.72ZM72.24 34.96L76.0724 36.1058L77.6108 30.96H72.24V34.96ZM17.92 32.64L21.3266 30.5436L21.3266 30.5436L17.92 32.64ZM17.12 30.32L13.1278 30.5695L13.1355 30.6932L13.1509 30.8161L17.12 30.32ZM17.44 27.68L13.619 26.4968L13.6106 26.524L13.6025 26.5513L17.44 27.68ZM22.32 11.92L18.5747 10.5155L18.5336 10.6251L18.499 10.7368L22.32 11.92ZM23.68 9.36L26.9762 11.6261L27.0079 11.58L27.0383 11.533L23.68 9.36ZM25.84 6.96L28.3624 10.0645L28.3624 10.0645L25.84 6.96ZM28.64 5.28L30.1922 8.96654L30.1922 8.96654L28.64 5.28ZM99.36 4.64L103.186 5.8068L104.762 0.639997H99.36V4.64ZM95.92 15.92V19.92H98.882L99.746 17.0868L95.92 15.92ZM38.88 15.92V11.92H35.9302L35.0586 14.7381L38.88 15.92ZM36.48 23.68L32.6586 22.4981L31.0559 27.68H36.48V23.68ZM89.04 24.32L87.0555 27.793L87.1061 27.8219L87.1577 27.8494L89.04 24.32ZM90.8 26L87.2781 27.8964L87.3329 27.9981L87.3934 28.0964L90.8 26ZM91.52 28.4L87.5269 28.6349L87.5346 28.7659L87.5509 28.8962L91.52 28.4ZM91.2 30.96L87.4547 29.5555L87.4103 29.6738L87.3735 29.7946L91.2 30.96ZM86.4 46.72L82.5735 45.5546L82.568 45.5729L82.5625 45.5913L86.4 46.72ZM85.04 49.36L81.84 46.96L81.7905 47.026L81.7438 47.0939L85.04 49.36ZM82.88 51.68L80.3576 48.5755L80.3576 48.5755L82.88 51.68ZM6.16 54L2.3416 52.8084L0.721538 58H6.16V54ZM9.68 42.72V38.72H6.73799L5.8616 41.5284L9.68 42.72ZM73.7524 43.8658L76.0724 36.1058L68.4076 33.8142L66.0876 41.5742L73.7524 43.8658ZM72.24 30.96H22.48V38.96H72.24V30.96ZM22.48 30.96C21.8511 30.96 21.6508 30.8392 21.6646 30.847L17.6954 37.793C19.2025 38.6542 20.8689 38.96 22.48 38.96V30.96ZM21.6646 30.847C21.4658 30.7335 21.3822 30.6338 21.3266 30.5436L14.5134 34.7364C15.3112 36.0328 16.4008 37.0532 17.6954 37.793L21.6646 30.847ZM21.3266 30.5436C21.2165 30.3646 21.1289 30.1423 21.0891 29.8239L13.1509 30.8161C13.3244 32.2043 13.7702 33.5287 14.5134 34.7364L21.3266 30.5436ZM21.1122 30.0705C21.0908 29.7285 21.1284 29.3154 21.2775 28.8087L13.6025 26.5513C13.2182 27.858 13.0425 29.2049 13.1278 30.5695L21.1122 30.0705ZM21.261 28.8632L26.141 13.1032L18.499 10.7368L13.619 26.4968L21.261 28.8632ZM26.0653 13.3245C26.2569 12.8136 26.5492 12.2472 26.9762 11.6261L20.3838 7.09388C19.6375 8.17944 19.0231 9.31976 18.5747 10.5155L26.0653 13.3245ZM27.0383 11.533C27.3928 10.9852 27.8288 10.498 28.3624 10.0645L23.3176 3.85554C22.1445 4.80871 21.1406 5.92148 20.3217 7.187L27.0383 11.533ZM28.3624 10.0645C28.9215 9.61013 29.5282 9.24612 30.1922 8.96654L27.0878 1.59346C25.7251 2.16721 24.4651 2.9232 23.3176 3.85555L28.3624 10.0645ZM30.1922 8.96654C30.7049 8.75068 31.2429 8.64 31.84 8.64V0.639997C30.1971 0.639997 28.6018 0.955984 27.0878 1.59346L30.1922 8.96654ZM31.84 8.64H99.36V0.639997H31.84V8.64ZM95.534 3.47319L92.094 14.7532L99.746 17.0868L103.186 5.8068L95.534 3.47319ZM95.92 11.92H38.88V19.92H95.92V11.92ZM35.0586 14.7381L32.6586 22.4981L40.3014 24.8619L42.7014 17.1019L35.0586 14.7381ZM36.48 27.68H86.24V19.68H36.48V27.68ZM86.24 27.68C86.8689 27.68 87.0692 27.8008 87.0555 27.793L91.0246 20.847C89.5175 19.9858 87.8511 19.68 86.24 19.68V27.68ZM87.1577 27.8494C87.2742 27.9115 87.3166 27.9519 87.3181 27.9534C87.3193 27.9545 87.3136 27.9492 87.3045 27.9373C87.2953 27.9253 87.286 27.9111 87.2781 27.8964L94.3219 24.1036C93.5207 22.6157 92.3096 21.5305 90.9224 20.7906L87.1577 27.8494ZM87.3934 28.0964C87.4353 28.1645 87.5078 28.3101 87.5269 28.6349L95.5131 28.1651C95.4255 26.6766 95.018 25.2221 94.2066 23.9036L87.3934 28.0964ZM87.5509 28.8962C87.5725 29.0688 87.5614 29.271 87.4547 29.5555L94.9453 32.3645C95.4786 30.9423 95.6809 29.4379 95.4891 27.9038L87.5509 28.8962ZM87.3735 29.7946L82.5735 45.5546L90.2265 47.8854L95.0265 32.1254L87.3735 29.7946ZM82.5625 45.5913C82.4469 45.9845 82.2299 46.4402 81.84 46.96L88.24 51.76C89.1301 50.5731 89.8198 49.2688 90.2375 47.8487L82.5625 45.5913ZM81.7438 47.0939C81.3867 47.6134 80.9326 48.1084 80.3576 48.5755L85.4024 54.7845C86.5341 53.865 87.52 52.8133 88.3362 51.6261L81.7438 47.0939ZM80.3576 48.5755C79.7985 49.0299 79.1918 49.3939 78.5278 49.6735L81.6322 57.0465C82.9949 56.4728 84.2549 55.7168 85.4024 54.7845L80.3576 48.5755ZM78.5278 49.6735C78.0151 49.8893 77.4771 50 76.88 50V58C78.5229 58 80.1182 57.684 81.6322 57.0465L78.5278 49.6735ZM76.88 50H6.16V58H76.88V50ZM9.9784 55.1916L13.4984 43.9116L5.8616 41.5284L2.3416 52.8084L9.9784 55.1916ZM9.68 46.72H69.92V38.72H9.68V46.72ZM137.084 54V58H140.035L140.906 55.1803L137.084 54ZM119.324 54L115.502 52.8197L113.903 58H119.324V54ZM131.084 15.92L134.906 17.1003L136.506 11.92H131.084V15.92ZM102.604 15.92L98.7783 14.7532L97.2026 19.92H102.604V15.92ZM106.044 4.64V0.639997H103.082L102.218 3.47319L106.044 4.64ZM180.284 4.64L184.11 5.8068L185.686 0.639997H180.284V4.64ZM176.844 15.92V19.92H179.806L180.67 17.0868L176.844 15.92ZM148.844 15.92V11.92H145.893L145.022 14.7397L148.844 15.92ZM137.084 50H119.324V58H137.084V50ZM123.146 55.1803L134.906 17.1003L127.262 14.7397L115.502 52.8197L123.146 55.1803ZM131.084 11.92H102.604V19.92H131.084V11.92ZM106.43 17.0868L109.87 5.8068L102.218 3.47319L98.7783 14.7532L106.43 17.0868ZM106.044 8.64H180.284V0.639997H106.044V8.64ZM176.458 3.47319L173.018 14.7532L180.67 17.0868L184.11 5.8068L176.458 3.47319ZM176.844 11.92H148.844V19.92H176.844V11.92ZM145.022 14.7397L133.262 52.8197L140.906 55.1803L152.666 17.1003L145.022 14.7397ZM263.942 11.92L260.197 10.5155L260.154 10.6279L260.119 10.7426L263.942 11.92ZM250.982 54V58H253.935L254.805 55.1774L250.982 54ZM233.222 54L229.398 52.827L227.811 58H233.222V54ZM239.062 34.96L242.886 36.133L244.473 30.96H239.062V34.96ZM201.302 34.96L197.483 33.7684L195.863 38.96H201.302V34.96ZM204.822 23.68V19.68H201.88L201.003 22.4884L204.822 23.68ZM242.582 23.68V27.68H245.532L246.403 24.8619L242.582 23.68ZM244.982 15.92L248.803 17.1019L250.406 11.92H244.982V15.92ZM201.302 15.92V11.92H198.351L197.48 14.7397L201.302 15.92ZM189.542 54V58H192.493L193.364 55.1803L189.542 54ZM171.782 54L167.959 52.8226L166.365 58H171.782V54ZM184.742 11.92L180.997 10.5155L180.954 10.6279L180.919 10.7426L184.742 11.92ZM186.102 9.36L189.398 11.6261L189.43 11.58L189.46 11.533L186.102 9.36ZM188.262 6.96L190.784 10.0645L190.784 10.0645L188.262 6.96ZM191.062 5.28L192.614 8.96654L192.614 8.96654L191.062 5.28ZM261.702 5.28L259.717 8.75296L259.768 8.78194L259.82 8.80941L261.702 5.28ZM263.542 6.96L260.135 9.05637L260.135 9.0564L263.542 6.96ZM264.262 9.36L260.269 9.5949L260.276 9.72591L260.293 9.85613L264.262 9.36ZM260.119 10.7426L247.159 52.8226L254.805 55.1774L267.765 13.0974L260.119 10.7426ZM250.982 50H233.222V58H250.982V50ZM237.046 55.173L242.886 36.133L235.238 33.787L229.398 52.827L237.046 55.173ZM239.062 30.96H201.302V38.96H239.062V30.96ZM205.12 36.1516L208.64 24.8716L201.003 22.4884L197.483 33.7684L205.12 36.1516ZM204.822 27.68H242.582V19.68H204.822V27.68ZM246.403 24.8619L248.803 17.1019L241.16 14.7381L238.76 22.4981L246.403 24.8619ZM244.982 11.92H201.302V19.92H244.982V11.92ZM197.48 14.7397L185.72 52.8197L193.364 55.1803L205.124 17.1003L197.48 14.7397ZM189.542 50H171.782V58H189.542V50ZM175.605 55.1774L188.565 13.0974L180.919 10.7426L167.959 52.8226L175.605 55.1774ZM188.487 13.3245C188.679 12.8136 188.971 12.2472 189.398 11.6261L182.806 7.09388C182.059 8.17944 181.445 9.31976 180.997 10.5155L188.487 13.3245ZM189.46 11.533C189.815 10.9852 190.251 10.498 190.784 10.0645L185.74 3.85554C184.566 4.80871 183.562 5.92148 182.744 7.187L189.46 11.533ZM190.784 10.0645C191.343 9.61013 191.95 9.24612 192.614 8.96654L189.51 1.59346C188.147 2.16721 186.887 2.9232 185.74 3.85555L190.784 10.0645ZM192.614 8.96654C193.127 8.75068 193.665 8.64 194.262 8.64V0.639997C192.619 0.639997 191.024 0.955984 189.51 1.59346L192.614 8.96654ZM194.262 8.64H258.902V0.639997H194.262V8.64ZM258.902 8.64C259.531 8.64 259.731 8.76083 259.717 8.75296L263.686 1.80703C262.179 0.94583 260.513 0.639997 258.902 0.639997V8.64ZM259.82 8.80941C260.066 8.94101 260.122 9.03424 260.135 9.05637L266.949 4.86363C266.109 3.4991 264.937 2.47232 263.584 1.75058L259.82 8.80941ZM260.135 9.0564C260.177 9.12454 260.25 9.27009 260.269 9.5949L268.255 9.1251C268.167 7.63657 267.76 6.18212 266.949 4.8636L260.135 9.0564ZM260.293 9.85613C260.314 10.0288 260.303 10.231 260.197 10.5155L267.687 13.3245C268.22 11.9024 268.423 10.3979 268.231 8.86386L260.293 9.85613ZM275.479 54V58H278.435L279.303 55.1751L275.479 54ZM257.719 54L253.897 52.8228L252.302 58H257.719V54ZM272.919 4.64V0.639997H269.966L269.097 3.46278L272.919 4.64ZM289.959 4.64L292.788 1.81157L291.616 0.639997H289.959V4.64ZM323.879 38.56L321.051 41.3884L325.743 46.08L327.701 39.7408L323.879 38.56ZM334.359 4.64V0.639997H331.409L330.538 3.45922L334.359 4.64ZM352.119 4.64L355.942 5.81721L357.537 0.639997H352.119V4.64ZM336.919 54V58H339.873L340.742 55.1772L336.919 54ZM319.879 54L317.058 56.8351L318.228 58H319.879V54ZM285.879 20.16L288.701 17.3249L284.003 12.649L282.056 18.9849L285.879 20.16ZM275.479 50H257.719V58H275.479V50ZM261.542 55.1772L276.742 5.81721L269.097 3.46278L253.897 52.8228L261.542 55.1772ZM272.919 8.64H289.959V0.639997H272.919V8.64ZM287.131 7.46842L321.051 41.3884L326.708 35.7316L292.788 1.81157L287.131 7.46842ZM327.701 39.7408L338.181 5.82077L330.538 3.45922L320.058 37.3792L327.701 39.7408ZM334.359 8.64H352.119V0.639997H334.359V8.64ZM348.297 3.46278L333.097 52.8228L340.742 55.1772L355.942 5.81721L348.297 3.46278ZM336.919 50H319.879V58H336.919V50ZM322.701 51.1649L288.701 17.3249L283.058 22.9951L317.058 56.8351L322.701 51.1649ZM282.056 18.9849L271.656 52.8249L279.303 55.1751L289.703 21.3351L282.056 18.9849Z" fill="white" mask="url(#path-1-outside-1_38_92)"/>
</g>
<defs>
<clipPath id="clip0_38_92">
<rect width="358" height="58" fill="white"/>
</clipPath>
</defs>
</svg>
