<svg width="511" height="57" viewBox="0 0 511 57" fill="none" xmlns="http://www.w3.org/2000/svg">
<g clip-path="url(#clip0_38_97)">
<mask id="path-1-outside-1_38_97" maskUnits="userSpaceOnUse" x="-1" y="-1" width="512" height="58" fill="black">
<rect fill="white" x="-1" y="-1" width="512" height="58"/>
<path d="M39.52 41.72H83.52L80 53H5.36L8.88 41.64L61.04 14.92H17.12L20.56 3.64H95.2L91.68 15L39.52 41.72ZM154.368 53H86.6881L90.2081 41.72H115.168L123.408 14.92H98.4481L101.888 3.64H169.568L166.128 14.92H141.168L132.928 41.72H157.888L154.368 53ZM178.823 53H161.063L176.263 3.64H193.303L227.223 37.56L237.703 3.64H255.463L240.263 53H223.223L189.223 19.16L178.823 53ZM254.281 53C253.161 53 252.227 52.7867 251.481 52.36C250.734 51.9333 250.147 51.3733 249.721 50.68C249.294 49.9867 249.027 49.2133 248.921 48.36C248.867 47.5067 248.974 46.6267 249.241 45.72L259.961 10.92C260.281 10.0667 260.734 9.21333 261.321 8.36C261.907 7.45333 262.627 6.65333 263.481 5.96C264.334 5.26667 265.267 4.70667 266.281 4.28C267.294 3.85333 268.361 3.64 269.481 3.64H341.401L337.961 14.92H276.521L268.281 41.72H311.961L314.281 33.96H276.841L280.361 22.68H335.561L328.441 45.72C328.174 46.6267 327.721 47.5067 327.081 48.36C326.494 49.2133 325.774 49.9867 324.921 50.68C324.067 51.3733 323.134 51.9333 322.121 52.36C321.107 52.7867 320.041 53 318.921 53H254.281ZM355.418 3.64H415.578C416.698 3.64 417.631 3.88 418.378 4.36C419.125 4.78666 419.685 5.34667 420.058 6.04C420.485 6.73333 420.725 7.50667 420.778 8.36C420.885 9.21333 420.831 10.0667 420.618 10.92L415.738 26.68C415.471 27.5867 415.018 28.4667 414.378 29.32C413.791 30.1733 413.071 30.9467 412.218 31.64C411.365 32.3333 410.431 32.8933 409.418 33.32C408.405 33.7467 407.338 33.96 406.218 33.96H362.378L365.898 22.68H399.258L401.658 14.92H362.458L354.218 41.72H411.178L407.658 53H340.218C339.098 53 338.165 52.7867 337.418 52.36C336.671 51.9333 336.085 51.3733 335.658 50.68C335.231 49.9867 334.965 49.2133 334.858 48.36C334.805 47.5067 334.911 46.6267 335.178 45.72L345.898 10.92C346.218 10.0667 346.671 9.21333 347.258 8.36C347.845 7.45333 348.565 6.65333 349.418 5.96C350.271 5.26667 351.205 4.70667 352.218 4.28C353.231 3.85333 354.298 3.64 355.418 3.64ZM414.344 53L429.544 3.64H501.464C502.584 3.64 503.518 3.85333 504.264 4.28C505.064 4.70667 505.678 5.26667 506.104 5.96C506.531 6.65333 506.771 7.45333 506.824 8.36C506.931 9.21333 506.824 10.0667 506.504 10.92L501.624 26.68C501.358 27.5867 500.904 28.4667 500.264 29.32C499.678 30.1733 498.958 30.9467 498.104 31.64C497.251 32.3333 496.318 32.8933 495.304 33.32C494.291 33.7467 493.224 33.96 492.104 33.96H470.984C472.104 34.8667 473.331 35.7733 474.664 36.68C476.051 37.5867 477.438 38.4133 478.824 39.16C480.211 39.9067 481.571 40.52 482.904 41C484.238 41.48 485.464 41.72 486.584 41.72H500.264L496.744 53H477.864C477.171 53 476.291 52.8667 475.224 52.6C474.211 52.28 473.358 51.9067 472.664 51.48C467.971 48.28 463.544 45.1867 459.384 42.2C455.278 39.16 451.038 35.96 446.664 32.6C446.398 32.0133 446.184 31.5067 446.024 31.08C445.864 30.6533 445.731 30.1733 445.624 29.64C445.464 28.8933 445.518 28.1467 445.784 27.4C445.944 26.8667 446.238 26.3333 446.664 25.8C447.091 25.2133 447.571 24.7067 448.104 24.28C448.638 23.8 449.198 23.4267 449.784 23.16C450.371 22.84 450.904 22.68 451.384 22.68H485.144L487.544 14.92H443.864L432.104 53H414.344Z"/>
</mask>
<path d="M39.52 41.72L37.6963 38.1599L39.52 45.72V41.72ZM83.52 41.72L87.3384 42.9116L88.9585 37.72H83.52V41.72ZM80 53V57H82.942L83.8184 54.1916L80 53ZM5.36 53L1.53922 51.8161L-0.0670613 57H5.36V53ZM8.88 41.64L7.05629 38.0799L5.55761 38.8477L5.05922 40.4561L8.88 41.64ZM61.04 14.92L62.8637 18.4801L61.04 10.92V14.92ZM17.12 14.92L13.294 13.7532L11.7183 18.92H17.12V14.92ZM20.56 3.64V-0.360003H17.598L16.734 2.47319L20.56 3.64ZM95.2 3.64L99.0208 4.8239L100.627 -0.360003H95.2V3.64ZM91.68 15L93.5037 18.5601L95.0024 17.7923L95.5008 16.1839L91.68 15ZM39.52 45.72H83.52V37.72H39.52V45.72ZM79.7016 40.5284L76.1816 51.8084L83.8184 54.1916L87.3384 42.9116L79.7016 40.5284ZM80 49H5.36V57H80V49ZM9.18078 54.1839L12.7008 42.8239L5.05922 40.4561L1.53922 51.8161L9.18078 54.1839ZM10.7037 45.2001L62.8637 18.4801L59.2163 11.3599L7.05629 38.0799L10.7037 45.2001ZM61.04 10.92H17.12V18.92H61.04V10.92ZM20.946 16.0868L24.386 4.8068L16.734 2.47319L13.294 13.7532L20.946 16.0868ZM20.56 7.64H95.2V-0.360003H20.56V7.64ZM91.3792 2.45609L87.8592 13.8161L95.5008 16.1839L99.0208 4.8239L91.3792 2.45609ZM89.8563 11.4399L37.6963 38.1599L41.3437 45.2801L93.5037 18.5601L89.8563 11.4399ZM154.368 53V57H157.31L158.187 54.1916L154.368 53ZM86.6881 53L82.8697 51.8084L81.2497 57H86.6881V53ZM90.2081 41.72V37.72H87.2661L86.3897 40.5284L90.2081 41.72ZM115.168 41.72V45.72H118.123L118.991 42.8955L115.168 41.72ZM123.408 14.92L127.231 16.0955L128.823 10.92H123.408V14.92ZM98.4481 14.92L94.6221 13.7532L93.0464 18.92H98.4481V14.92ZM101.888 3.64V-0.360003H98.9261L98.0621 2.47319L101.888 3.64ZM169.568 3.64L173.394 4.8068L174.97 -0.360003H169.568V3.64ZM166.128 14.92V18.92H169.09L169.954 16.0868L166.128 14.92ZM141.168 14.92V10.92H138.213L137.345 13.7445L141.168 14.92ZM132.928 41.72L129.105 40.5445L127.513 45.72H132.928V41.72ZM157.888 41.72L161.707 42.9116L163.327 37.72H157.888V41.72ZM154.368 49H86.6881V57H154.368V49ZM90.5065 54.1916L94.0265 42.9116L86.3897 40.5284L82.8697 51.8084L90.5065 54.1916ZM90.2081 45.72H115.168V37.72H90.2081V45.72ZM118.991 42.8955L127.231 16.0955L119.585 13.7445L111.345 40.5445L118.991 42.8955ZM123.408 10.92H98.4481V18.92H123.408V10.92ZM102.274 16.0868L105.714 4.8068L98.0621 2.47319L94.6221 13.7532L102.274 16.0868ZM101.888 7.64H169.568V-0.360003H101.888V7.64ZM165.742 2.47319L162.302 13.7532L169.954 16.0868L173.394 4.8068L165.742 2.47319ZM166.128 10.92H141.168V18.92H166.128V10.92ZM137.345 13.7445L129.105 40.5445L136.751 42.8955L144.991 16.0955L137.345 13.7445ZM132.928 45.72H157.888V37.72H132.928V45.72ZM154.07 40.5284L150.55 51.8084L158.187 54.1916L161.707 42.9116L154.07 40.5284ZM178.823 53V57H181.778L182.647 54.1751L178.823 53ZM161.063 53L157.24 51.8228L155.646 57H161.063V53ZM176.263 3.64V-0.360003H173.31L172.44 2.46278L176.263 3.64ZM193.303 3.64L196.132 0.81157L194.96 -0.360003H193.303V3.64ZM227.223 37.56L224.395 40.3884L229.086 45.08L231.045 38.7408L227.223 37.56ZM237.703 3.64V-0.360003H234.752L233.881 2.45922L237.703 3.64ZM255.463 3.64L259.286 4.81721L260.88 -0.360003H255.463V3.64ZM240.263 53V57H243.217L244.086 54.1772L240.263 53ZM223.223 53L220.401 55.8351L221.572 57H223.223V53ZM189.223 19.16L192.045 16.3249L187.347 11.649L185.4 17.9849L189.223 19.16ZM178.823 49H161.063V57H178.823V49ZM164.886 54.1772L180.086 4.81721L172.44 2.46278L157.24 51.8228L164.886 54.1772ZM176.263 7.64H193.303V-0.360003H176.263V7.64ZM190.475 6.46842L224.395 40.3884L230.052 34.7316L196.132 0.81157L190.475 6.46842ZM231.045 38.7408L241.525 4.82077L233.881 2.45922L223.401 36.3792L231.045 38.7408ZM237.703 7.64H255.463V-0.360003H237.703V7.64ZM251.64 2.46278L236.44 51.8228L244.086 54.1772L259.286 4.81721L251.64 2.46278ZM240.263 49H223.223V57H240.263V49ZM226.045 50.1649L192.045 16.3249L186.401 21.9951L220.401 55.8351L226.045 50.1649ZM185.4 17.9849L175 51.8249L182.647 54.1751L193.047 20.3351L185.4 17.9849ZM249.721 50.68L246.314 52.7764L246.314 52.7764L249.721 50.68ZM248.921 48.36L244.928 48.6095L244.936 48.7332L244.952 48.8561L248.921 48.36ZM249.241 45.72L245.418 44.5424L245.41 44.5668L245.403 44.5913L249.241 45.72ZM259.961 10.92L256.215 9.51551L256.173 9.6278L256.138 9.74242L259.961 10.92ZM261.321 8.36L264.617 10.6261L264.649 10.58L264.679 10.533L261.321 8.36ZM263.481 5.96L266.003 9.06446L266.003 9.06445L263.481 5.96ZM266.281 4.28L267.833 7.96654L267.833 7.96654L266.281 4.28ZM341.401 3.64L345.227 4.8068L346.802 -0.360003H341.401V3.64ZM337.961 14.92V18.92H340.923L341.787 16.0868L337.961 14.92ZM276.521 14.92V10.92H273.566L272.697 13.7445L276.521 14.92ZM268.281 41.72L264.457 40.5445L262.866 45.72H268.281V41.72ZM311.961 41.72V45.72H314.94L315.793 42.8658L311.961 41.72ZM314.281 33.96L318.113 35.1058L319.651 29.96H314.281V33.96ZM276.841 33.96L273.022 32.7684L271.402 37.96H276.841V33.96ZM280.361 22.68V18.68H277.419L276.542 21.4884L280.361 22.68ZM335.561 22.68L339.382 23.861L340.983 18.68H335.561V22.68ZM328.441 45.72L324.619 44.539L324.611 44.5651L324.603 44.5913L328.441 45.72ZM327.081 48.36L323.881 45.96L323.831 46.026L323.784 46.0939L327.081 48.36ZM324.921 50.68L327.443 53.7845L327.443 53.7845L324.921 50.68ZM322.121 52.36L323.673 56.0465L323.673 56.0465L322.121 52.36ZM254.281 49C253.652 49 253.451 48.8792 253.465 48.887L249.496 55.833C251.003 56.6942 252.669 57 254.281 57V49ZM253.465 48.887C253.266 48.7735 253.183 48.6738 253.127 48.5836L246.314 52.7764C247.112 54.0728 248.201 55.0932 249.496 55.833L253.465 48.887ZM253.127 48.5836C253.017 48.4046 252.93 48.1823 252.89 47.8639L244.952 48.8561C245.125 50.2443 245.571 51.5687 246.314 52.7764L253.127 48.5836ZM252.913 48.1105C252.891 47.7685 252.929 47.3554 253.078 46.8487L245.403 44.5913C245.019 45.898 244.843 47.2449 244.928 48.6095L252.913 48.1105ZM253.063 46.8976L263.783 12.0976L256.138 9.74242L245.418 44.5424L253.063 46.8976ZM263.706 12.3245C263.898 11.8136 264.19 11.2472 264.617 10.6261L258.024 6.09388C257.278 7.17944 256.664 8.31976 256.215 9.51551L263.706 12.3245ZM264.679 10.533C265.033 9.98518 265.469 9.49796 266.003 9.06446L260.958 2.85554C259.785 3.80871 258.781 4.92148 257.962 6.187L264.679 10.533ZM266.003 9.06445C266.562 8.61013 267.169 8.24612 267.833 7.96654L264.728 0.593457C263.366 1.16721 262.106 1.9232 260.958 2.85555L266.003 9.06445ZM267.833 7.96654C268.346 7.75068 268.884 7.64 269.481 7.64V-0.360003C267.838 -0.360003 266.242 -0.0440159 264.728 0.593458L267.833 7.96654ZM269.481 7.64H341.401V-0.360003H269.481V7.64ZM337.575 2.47319L334.135 13.7532L341.787 16.0868L345.227 4.8068L337.575 2.47319ZM337.961 10.92H276.521V18.92H337.961V10.92ZM272.697 13.7445L264.457 40.5445L272.104 42.8955L280.344 16.0955L272.697 13.7445ZM268.281 45.72H311.961V37.72H268.281V45.72ZM315.793 42.8658L318.113 35.1058L310.448 32.8142L308.128 40.5742L315.793 42.8658ZM314.281 29.96H276.841V37.96H314.281V29.96ZM280.659 35.1516L284.179 23.8716L276.542 21.4884L273.022 32.7684L280.659 35.1516ZM280.361 26.68H335.561V18.68H280.361V26.68ZM331.739 21.499L324.619 44.539L332.262 46.901L339.382 23.861L331.739 21.499ZM324.603 44.5913C324.488 44.9845 324.27 45.4402 323.881 45.96L330.281 50.76C331.171 49.5731 331.86 48.2688 332.278 46.8487L324.603 44.5913ZM323.784 46.0939C323.427 46.6134 322.973 47.1084 322.398 47.5755L327.443 53.7845C328.575 52.865 329.561 51.8133 330.377 50.6261L323.784 46.0939ZM322.398 47.5755C321.839 48.0299 321.232 48.3939 320.568 48.6735L323.673 56.0465C325.036 55.4728 326.295 54.7168 327.443 53.7845L322.398 47.5755ZM320.568 48.6735C320.056 48.8893 319.518 49 318.921 49V57C320.564 57 322.159 56.684 323.673 56.0465L320.568 48.6735ZM318.921 49H254.281V57H318.921V49ZM418.378 4.36L416.215 7.72471L416.303 7.78117L416.394 7.83297L418.378 4.36ZM420.058 6.04L416.536 7.93639L416.591 8.03805L416.651 8.13639L420.058 6.04ZM420.778 8.36L416.786 8.60952L416.794 8.73318L416.809 8.85613L420.778 8.36ZM420.618 10.92L424.439 12.1032L424.472 11.9975L424.499 11.8902L420.618 10.92ZM415.738 26.68L411.917 25.4968L411.909 25.524L411.901 25.5513L415.738 26.68ZM414.378 29.32L411.178 26.92L411.129 26.986L411.082 27.0539L414.378 29.32ZM412.218 31.64L409.696 28.5355L409.696 28.5356L412.218 31.64ZM409.418 33.32L407.866 29.6335L407.866 29.6335L409.418 33.32ZM362.378 33.96L358.56 32.7684L356.94 37.96H362.378V33.96ZM365.898 22.68V18.68H362.956L362.08 21.4884L365.898 22.68ZM399.258 22.68V26.68H402.208L403.08 23.8619L399.258 22.68ZM401.658 14.92L405.48 16.1019L407.082 10.92H401.658V14.92ZM362.458 14.92V10.92H359.503L358.635 13.7445L362.458 14.92ZM354.218 41.72L350.395 40.5445L348.803 45.72H354.218V41.72ZM411.178 41.72L414.997 42.9116L416.617 37.72H411.178V41.72ZM407.658 53V57H410.6L411.477 54.1916L407.658 53ZM335.658 50.68L332.251 52.7764L332.251 52.7764L335.658 50.68ZM334.858 48.36L330.866 48.6095L330.874 48.7332L330.889 48.8561L334.858 48.36ZM335.178 45.72L331.355 44.5424L331.348 44.5668L331.341 44.5913L335.178 45.72ZM345.898 10.92L342.153 9.51551L342.111 9.6278L342.075 9.74242L345.898 10.92ZM347.258 8.36L350.554 10.6261L350.586 10.58L350.616 10.533L347.258 8.36ZM349.418 5.96L351.94 9.06446L351.94 9.06445L349.418 5.96ZM352.218 4.28L353.77 7.96654L353.77 7.96654L352.218 4.28ZM355.418 7.64H415.578V-0.360003H355.418V7.64ZM415.578 7.64C416.131 7.64 416.263 7.75568 416.215 7.72471L420.541 0.995288C419 0.00430927 417.265 -0.360003 415.578 -0.360003V7.64ZM416.394 7.83297C416.485 7.88494 416.522 7.92037 416.53 7.92843C416.536 7.93475 416.535 7.93448 416.536 7.93639L423.58 4.14361C422.819 2.73106 421.697 1.64958 420.363 0.887022L416.394 7.83297ZM416.651 8.13639C416.717 8.24311 416.771 8.37653 416.786 8.60952L424.77 8.11047C424.678 6.6368 424.252 5.22356 423.465 3.94361L416.651 8.13639ZM416.809 8.85613C416.853 9.20814 416.834 9.56446 416.738 9.94984L424.499 11.8902C424.829 10.5689 424.917 9.21852 424.747 7.86386L416.809 8.85613ZM416.797 9.73684L411.917 25.4968L419.559 27.8632L424.439 12.1032L416.797 9.73684ZM411.901 25.5513C411.785 25.9445 411.568 26.4002 411.178 26.92L417.578 31.72C418.468 30.5331 419.158 29.2288 419.576 27.8087L411.901 25.5513ZM411.082 27.0539C410.725 27.5734 410.271 28.0684 409.696 28.5355L414.74 34.7445C415.872 33.825 416.858 32.7733 417.674 31.5861L411.082 27.0539ZM409.696 28.5356C409.137 28.9899 408.53 29.3539 407.866 29.6335L410.97 37.0065C412.333 36.4328 413.593 35.6768 414.741 34.7444L409.696 28.5356ZM407.866 29.6335C407.353 29.8493 406.815 29.96 406.218 29.96V37.96C407.861 37.96 409.456 37.644 410.97 37.0065L407.866 29.6335ZM406.218 29.96H362.378V37.96H406.218V29.96ZM366.197 35.1516L369.717 23.8716L362.08 21.4884L358.56 32.7684L366.197 35.1516ZM365.898 26.68H399.258V18.68H365.898V26.68ZM403.08 23.8619L405.48 16.1019L397.837 13.7381L395.437 21.4981L403.08 23.8619ZM401.658 10.92H362.458V18.92H401.658V10.92ZM358.635 13.7445L350.395 40.5445L358.041 42.8955L366.281 16.0955L358.635 13.7445ZM354.218 45.72H411.178V37.72H354.218V45.72ZM407.36 40.5284L403.84 51.8084L411.477 54.1916L414.997 42.9116L407.36 40.5284ZM407.658 49H340.218V57H407.658V49ZM340.218 49C339.589 49 339.389 48.8792 339.403 48.887L335.434 55.833C336.941 56.6942 338.607 57 340.218 57V49ZM339.403 48.887C339.204 48.7735 339.12 48.6738 339.065 48.5836L332.251 52.7764C333.049 54.0728 334.139 55.0932 335.434 55.833L339.403 48.887ZM339.065 48.5836C338.955 48.4046 338.867 48.1823 338.827 47.8639L330.889 48.8561C331.063 50.2443 331.508 51.5687 332.251 52.7764L339.065 48.5836ZM338.85 48.1105C338.829 47.7685 338.867 47.3554 339.016 46.8487L331.341 44.5913C330.956 45.898 330.781 47.2449 330.866 48.6095L338.85 48.1105ZM339.001 46.8976L349.721 12.0976L342.075 9.74242L331.355 44.5424L339.001 46.8976ZM349.643 12.3245C349.835 11.8136 350.127 11.2472 350.554 10.6261L343.962 6.09388C343.216 7.17944 342.601 8.31976 342.153 9.51551L349.643 12.3245ZM350.616 10.533C350.971 9.98518 351.407 9.49796 351.94 9.06446L346.896 2.85554C345.723 3.80871 344.719 4.92148 343.9 6.187L350.616 10.533ZM351.94 9.06445C352.5 8.61013 353.106 8.24612 353.77 7.96654L350.666 0.593457C349.303 1.16721 348.043 1.9232 346.896 2.85555L351.94 9.06445ZM353.77 7.96654C354.283 7.75068 354.821 7.64 355.418 7.64V-0.360003C353.775 -0.360003 352.18 -0.0440159 350.666 0.593458L353.77 7.96654ZM414.344 53L410.522 51.8228L408.927 57H414.344V53ZM429.544 3.64V-0.360003H426.591L425.722 2.46278L429.544 3.64ZM504.264 4.28L502.28 7.75296L502.331 7.78194L502.382 7.80941L504.264 4.28ZM506.104 5.96L502.698 8.05637L502.698 8.0564L506.104 5.96ZM506.824 8.36L502.831 8.5949L502.839 8.72591L502.855 8.85613L506.824 8.36ZM506.504 10.92L502.759 9.5155L502.718 9.62506L502.683 9.73684L506.504 10.92ZM501.624 26.68L497.803 25.4968L497.795 25.524L497.787 25.5513L501.624 26.68ZM500.264 29.32L497.064 26.92L497.015 26.986L496.968 27.0539L500.264 29.32ZM498.104 31.64L500.627 34.7445L500.627 34.7444L498.104 31.64ZM495.304 33.32L493.752 29.6335L493.752 29.6335L495.304 33.32ZM470.984 33.96V29.96H459.686L468.468 37.069L470.984 33.96ZM474.664 36.68L472.415 39.9877L472.445 40.0081L472.475 40.0279L474.664 36.68ZM478.824 39.16L480.721 35.6381L480.721 35.6381L478.824 39.16ZM482.904 41L484.259 37.2365L484.259 37.2364L482.904 41ZM500.264 41.72L504.083 42.9116L505.703 37.72H500.264V41.72ZM496.744 53V57H499.686L500.563 54.1916L496.744 53ZM475.224 52.6L474.02 56.4143L474.136 56.451L474.254 56.4806L475.224 52.6ZM472.664 51.48L470.411 54.7849L470.488 54.8376L470.568 54.8866L472.664 51.48ZM459.384 42.2L457.004 45.415L457.028 45.4323L457.052 45.4493L459.384 42.2ZM446.664 32.6L443.023 34.2552L443.436 35.1638L444.227 35.7719L446.664 32.6ZM446.024 31.08L449.77 29.6755L449.77 29.6755L446.024 31.08ZM445.624 29.64L449.547 28.8555L449.541 28.8287L449.536 28.8019L445.624 29.64ZM445.784 27.4L449.551 28.7453L449.586 28.6482L449.616 28.5494L445.784 27.4ZM446.664 25.8L449.788 28.2988L449.845 28.227L449.899 28.1527L446.664 25.8ZM448.104 24.28L450.603 27.4035L450.694 27.3309L450.78 27.2532L448.104 24.28ZM449.784 23.16L451.44 26.8015L451.572 26.7413L451.7 26.6716L449.784 23.16ZM485.144 22.68V26.68H488.094L488.966 23.8619L485.144 22.68ZM487.544 14.92L491.366 16.1019L492.968 10.92H487.544V14.92ZM443.864 14.92V10.92H440.913L440.042 13.7397L443.864 14.92ZM432.104 53V57H435.055L435.926 54.1803L432.104 53ZM418.167 54.1772L433.367 4.81721L425.722 2.46278L410.522 51.8228L418.167 54.1772ZM429.544 7.64H501.464V-0.360003H429.544V7.64ZM501.464 7.64C502.093 7.64 502.294 7.76083 502.28 7.75296L506.249 0.807031C504.742 -0.0541699 503.076 -0.360003 501.464 -0.360003V7.64ZM502.382 7.80941C502.629 7.94101 502.684 8.03424 502.698 8.05637L509.511 3.86363C508.671 2.4991 507.5 1.47232 506.147 0.750582L502.382 7.80941ZM502.698 8.0564C502.74 8.12454 502.812 8.27009 502.831 8.5949L510.817 8.1251C510.73 6.63657 510.322 5.18212 509.511 3.8636L502.698 8.0564ZM502.855 8.85613C502.877 9.02875 502.866 9.23097 502.759 9.5155L510.25 12.3245C510.783 10.9024 510.985 9.39791 510.793 7.86386L502.855 8.85613ZM502.683 9.73684L497.803 25.4968L505.445 27.8632L510.325 12.1032L502.683 9.73684ZM497.787 25.5513C497.671 25.9445 497.454 26.4002 497.064 26.92L503.464 31.72C504.355 30.5331 505.044 29.2288 505.462 27.8087L497.787 25.5513ZM496.968 27.0539C496.611 27.5734 496.157 28.0684 495.582 28.5355L500.627 34.7444C501.758 33.825 502.744 32.7733 503.561 31.5861L496.968 27.0539ZM495.582 28.5355C495.023 28.9899 494.416 29.3539 493.752 29.6335L496.857 37.0065C498.219 36.4328 499.479 35.6768 500.627 34.7445L495.582 28.5355ZM493.752 29.6335C493.239 29.8493 492.701 29.96 492.104 29.96V37.96C493.747 37.96 495.343 37.644 496.857 37.0065L493.752 29.6335ZM492.104 29.96H470.984V37.96H492.104V29.96ZM468.468 37.069C469.683 38.0532 471.001 39.0258 472.415 39.9877L476.914 33.3723C475.662 32.5209 474.525 31.6801 473.501 30.851L468.468 37.069ZM472.475 40.0279C473.952 40.9935 475.436 41.8787 476.928 42.6819L480.721 35.6381C479.439 34.948 478.15 34.1799 476.853 33.3321L472.475 40.0279ZM476.928 42.6819C478.47 43.5122 480.011 44.2096 481.55 44.7635L484.259 37.2364C483.131 36.8304 481.952 36.3011 480.721 35.6381L476.928 42.6819ZM481.549 44.7635C483.207 45.3603 484.898 45.72 486.584 45.72V37.72C486.03 37.72 485.268 37.5997 484.259 37.2365L481.549 44.7635ZM486.584 45.72H500.264V37.72H486.584V45.72ZM496.446 40.5284L492.926 51.8084L500.563 54.1916L504.083 42.9116L496.446 40.5284ZM496.744 49H477.864V57H496.744V49ZM477.864 49C477.631 49 477.106 48.9472 476.195 48.7194L474.254 56.4806C475.476 56.7861 476.711 57 477.864 57V49ZM476.429 48.7857C475.639 48.5363 475.105 48.2851 474.761 48.0734L470.568 54.8866C471.611 55.5283 472.783 56.0237 474.02 56.4143L476.429 48.7857ZM474.918 48.1751C470.248 44.9914 465.848 41.9166 461.717 38.9507L457.052 45.4493C461.24 48.4567 465.694 51.5686 470.411 54.7849L474.918 48.1751ZM461.764 38.985C457.678 35.9603 453.457 32.7747 449.101 29.4281L444.227 35.7719C448.618 39.1453 452.877 42.3597 457.004 45.415L461.764 38.985ZM450.306 30.9448C450.063 30.4098 449.888 29.9909 449.77 29.6755L442.279 32.4845C442.481 33.0225 442.733 33.6169 443.023 34.2552L450.306 30.9448ZM449.77 29.6755C449.698 29.4846 449.619 29.2169 449.547 28.8555L441.702 30.4245C441.843 31.1298 442.031 31.8221 442.279 32.4845L449.77 29.6755ZM449.536 28.8019C449.534 28.7939 449.534 28.792 449.534 28.795C449.534 28.7981 449.534 28.8019 449.534 28.805C449.534 28.808 449.534 28.8061 449.536 28.7981C449.537 28.7899 449.542 28.7726 449.551 28.7453L442.017 26.0546C441.511 27.4734 441.391 28.9757 441.713 30.4781L449.536 28.8019ZM449.616 28.5494C449.599 28.6046 449.611 28.5198 449.788 28.2988L443.541 23.3012C442.864 24.1468 442.29 25.1288 441.953 26.2506L449.616 28.5494ZM449.899 28.1527C450.129 27.8368 450.365 27.5938 450.603 27.4035L445.606 21.1565C444.777 21.8195 444.053 22.5899 443.429 23.4473L449.899 28.1527ZM450.78 27.2532C451.044 27.0161 451.265 26.8809 451.44 26.8015L448.129 19.5185C447.131 19.9725 446.232 20.5839 445.429 21.3068L450.78 27.2532ZM451.7 26.6716C451.796 26.619 451.819 26.6176 451.774 26.6313C451.726 26.6457 451.59 26.68 451.384 26.68V18.68C450.024 18.68 448.825 19.127 447.869 19.6484L451.7 26.6716ZM451.384 26.68H485.144V18.68H451.384V26.68ZM488.966 23.8619L491.366 16.1019L483.723 13.7381L481.323 21.4981L488.966 23.8619ZM487.544 10.92H443.864V18.92H487.544V10.92ZM440.042 13.7397L428.282 51.8197L435.926 54.1803L447.686 16.1003L440.042 13.7397ZM432.104 49H414.344V57H432.104V49Z" fill="white" mask="url(#path-1-outside-1_38_97)"/>
</g>
<defs>
<clipPath id="clip0_38_97">
<rect width="511" height="57" fill="white"/>
</clipPath>
</defs>
</svg>
